# This file uses centimeters as units for non-parametric coordinates.

mtllib BedSideTable.mtl
g default
v -0.722264 0.930956 0.637645
v -0.000000 0.930956 0.637645
v -0.722264 1.010916 0.637645
v -0.000000 1.010916 0.637645
v -0.722264 1.010916 0.000000
v -0.000000 1.010916 0.000000
v -0.722264 0.930956 0.000000
v -0.000000 0.930956 0.000000
v -0.697740 0.930956 0.024523
v -0.024523 0.930956 0.024523
v -0.024523 0.930956 0.613122
v -0.697740 0.930956 0.613122
v -0.697740 0.066949 0.024523
v -0.024523 0.066949 0.024523
v -0.024523 0.066949 0.613122
v -0.697740 0.066949 0.613122
v -0.072226 0.930956 0.637645
v -0.072226 1.010916 0.637645
v -0.072226 1.010916 0.000000
v -0.072226 0.930956 0.000000
v -0.091845 0.930956 0.024523
v -0.091845 0.066949 0.024523
v -0.091845 0.066949 0.613122
v -0.091845 0.930956 0.613122
v -0.650037 0.930956 0.637645
v -0.630419 0.930956 0.613122
v -0.630419 0.066949 0.613122
v -0.630419 0.066949 0.024523
v -0.630419 0.930956 0.024523
v -0.650037 0.930956 0.000000
v -0.650037 1.010916 0.000000
v -0.650037 1.010916 0.637645
v -0.722264 1.010916 0.565419
v -0.650037 1.010916 0.565419
v -0.072226 1.010916 0.565419
v -0.000000 1.010916 0.565419
v -0.000000 0.930956 0.565419
v -0.024523 0.930956 0.545800
v -0.024523 0.066949 0.545800
v -0.091845 0.066949 0.545800
v -0.630419 0.066949 0.545800
v -0.697740 0.066949 0.545800
v -0.697740 0.930956 0.545800
v -0.722264 0.930956 0.565419
v -0.722264 0.930956 0.065004
v -0.697740 0.930956 0.085113
v -0.697740 0.066949 0.085113
v -0.630419 0.066949 0.085113
v -0.091845 0.066949 0.085113
v -0.024523 0.066949 0.085113
v -0.024523 0.930956 0.085113
v -0.000000 0.930956 0.065004
v -0.000000 1.010916 0.065004
v -0.072226 1.010916 0.065004
v -0.650037 1.010916 0.065004
v -0.722264 1.010916 0.065004
v -0.091845 0.000000 0.545800
v -0.091845 0.000000 0.613122
v -0.024523 0.000000 0.545800
v -0.024523 0.000000 0.613122
v -0.630419 0.000000 0.545800
v -0.697740 0.000000 0.545800
v -0.630419 0.000000 0.613122
v -0.697740 0.000000 0.613122
v -0.697740 0.000000 0.024523
v -0.630419 0.000000 0.024523
v -0.630419 0.000000 0.085113
v -0.697740 0.000000 0.085113
v -0.091845 0.000000 0.085113
v -0.024523 0.000000 0.085113
v -0.091845 0.000000 0.024523
v -0.024523 0.000000 0.024523
vt 0.577988 0.986115
vt 0.577988 0.938994
vt 0.082095 0.083428
vt 0.472430 0.083428
vt 0.472430 0.444471
vt 0.082095 0.444471
vt 0.095348 0.429963
vt 0.459177 0.429963
vt 0.459177 0.097583
vt 0.095348 0.097583
vt 0.934991 0.938994
vt 0.934991 0.986115
vt 0.934991 0.986115
vt 0.934991 0.938994
vt 0.472430 0.491371
vt 0.459177 0.473677
vt 0.095348 0.473677
vt 0.082095 0.491371
vt 0.577988 0.938994
vt 0.577988 0.986115
vt 0.920645 0.429830
vt 0.920645 0.938994
vt 0.935585 0.938994
vt 0.504656 0.429963
vt 0.521222 0.444471
vt 0.521222 0.083428
vt 0.504656 0.097583
vt 0.459177 0.049011
vt 0.472430 0.031318
vt 0.082095 0.031318
vt 0.095348 0.049011
vt 0.935585 0.986115
vt 0.049870 0.097583
vt 0.033303 0.083428
vt 0.033303 0.444471
vt 0.049870 0.429963
vt 0.521222 0.444471
vt 0.521222 0.083428
vt 0.521222 0.491371
vt 0.504656 0.473677
vt 0.591985 0.938994
vt 0.504656 0.097583
vt 0.504656 0.429963
vt 0.521222 0.031318
vt 0.504656 0.049011
vt 0.591985 0.429830
vt 0.033303 0.031318
vt 0.591985 0.429830
vt 0.049870 0.049011
vt 0.049870 0.429963
vt 0.049870 0.097583
vt 0.033303 0.491371
vt 0.049870 0.473677
vt 0.033303 0.083428
vt 0.591985 0.938994
vt 0.033303 0.444471
vt 0.920645 0.938994
vt 0.033303 0.031318
vt 0.082095 0.031318
vt 0.472430 0.031318
vt 0.521222 0.031318
vt 0.459177 0.049011
vt 0.459177 0.097583
vt 0.504656 0.097583
vt 0.504656 0.049011
vt 0.920645 0.429830
vt 0.459177 0.049011
vt 0.526461 0.938994
vt 0.095348 0.049011
vt 0.049870 0.097583
vt 0.526461 0.986115
vt 0.095348 0.097583
vt 0.095348 0.049011
vt 0.049870 0.049011
vt 0.049870 0.473677
vt 0.095348 0.473677
vt 0.095348 0.429963
vt 0.049870 0.429963
vt 0.095348 0.473677
vt 0.459177 0.473677
vt 0.504656 0.429963
vt 0.459177 0.429963
vt 0.459177 0.473677
vt 0.504656 0.473677
vt 0.472430 0.491371
vt 0.521222 0.491371
vt 0.082095 0.491371
vt 0.033303 0.491371
vt 0.572241 0.986115
vt 0.572241 0.938994
vt 0.935585 0.986115
vt 0.935585 0.938994
vt 0.572241 0.938994
vt 0.572241 0.986115
vt 0.923248 0.938994
vt 0.923248 0.429830
vt 0.584578 0.429830
vt 0.584578 0.938994
vt 0.923248 0.429830
vt 0.923248 0.938994
vt 0.584578 0.938994
vt 0.584578 0.429830
vt 0.981003 0.938994
vt 0.981003 0.986115
vt 0.981003 0.986115
vt 0.981003 0.938994
vt 0.965582 0.938994
vt 0.965582 0.429830
vt 0.965582 0.938994
vt 0.965582 0.429830
vt 0.542244 0.938994
vt 0.542244 0.429830
vt 0.542244 0.938994
vt 0.542244 0.429830
vt 0.526823 0.986115
vt 0.526823 0.938994
vt 0.526823 0.938994
vt 0.526823 0.986115
vt 0.923248 0.429830
vt 0.965582 0.429830
vt 0.965582 0.390377
vt 0.923248 0.390377
vt 0.923248 0.390377
vt 0.965582 0.390377
vt 0.542244 0.429830
vt 0.584578 0.429830
vt 0.584578 0.390377
vt 0.542244 0.390377
vt 0.542244 0.390377
vt 0.584578 0.390377
vt 0.584578 0.390377
vt 0.542244 0.390377
vt 0.584578 0.429830
vt 0.542244 0.429830
vt 0.542244 0.390377
vt 0.584578 0.390377
vt 0.965582 0.429830
vt 0.923248 0.429830
vt 0.923248 0.390377
vt 0.965582 0.390377
vt 0.965582 0.390377
vt 0.923248 0.390377
vt 0.543956 0.938994
vt 0.543956 0.429830
vt 0.543956 0.938994
vt 0.543956 0.429830
vt 0.526461 0.938994
vt 0.526461 0.986115
vt 0.963870 0.938994
vt 0.963870 0.429830
vt 0.963870 0.938994
vt 0.963870 0.429830
vt 0.981365 0.938994
vt 0.981365 0.986115
vt 0.981365 0.938994
vt 0.981365 0.986115
vt 0.543956 0.429830
vt 0.591985 0.429830
vt 0.591985 0.390377
vt 0.543956 0.390377
vt 0.543956 0.390377
vt 0.591985 0.390377
vt 0.591985 0.429830
vt 0.543956 0.429830
vt 0.543956 0.390377
vt 0.591984 0.390377
vt 0.591984 0.390377
vt 0.543956 0.390377
vt 0.963870 0.429830
vt 0.920645 0.429830
vt 0.920645 0.390377
vt 0.963870 0.390377
vt 0.963870 0.390377
vt 0.920645 0.390377
vt 0.920645 0.429830
vt 0.963870 0.429830
vt 0.963870 0.390377
vt 0.920644 0.390377
vt 0.920644 0.390377
vt 0.963870 0.390377
vn 0.000000 0.000000 1.000000
vn 0.000000 0.000000 1.000000
vn 0.000000 0.000000 1.000000
vn 0.000000 0.000000 1.000000
vn 0.000000 1.000000 0.000000
vn 0.000000 1.000000 0.000000
vn 0.000000 1.000000 0.000000
vn 0.000000 1.000000 0.000000
vn 0.000000 0.000000 -1.000000
vn 0.000000 0.000000 -1.000000
vn 0.000000 0.000000 -1.000000
vn 0.000000 0.000000 -1.000000
vn 0.000000 -1.000000 0.000000
vn 0.000000 -1.000000 0.000000
vn 0.000000 -1.000000 -0.000000
vn 0.000000 -1.000000 -0.000000
vn 1.000000 0.000000 0.000000
vn 1.000000 0.000000 0.000000
vn 1.000000 0.000000 0.000000
vn 1.000000 0.000000 0.000000
vn -1.000000 0.000000 0.000000
vn -1.000000 0.000000 0.000000
vn -1.000000 0.000000 0.000000
vn -1.000000 0.000000 0.000000
vn 0.000000 -1.000000 -0.000000
vn 0.000000 -1.000000 -0.000000
vn 0.000000 -1.000000 -0.000000
vn 0.000000 -1.000000 -0.000000
vn 0.000000 -1.000000 0.000000
vn 0.000000 -1.000000 0.000000
vn 0.000000 -1.000000 0.000000
vn 0.000000 -1.000000 0.000000
vn 0.000000 -1.000000 0.000000
vn 0.000000 -1.000000 0.000000
vn 0.000000 -1.000000 0.000000
vn 0.000000 -1.000000 0.000000
vn 0.000000 -1.000000 0.000000
vn 0.000000 -1.000000 0.000000
vn 0.000000 -1.000000 0.000000
vn 0.000000 -1.000000 0.000000
vn 0.000000 0.000000 -1.000000
vn 0.000000 -0.000000 -1.000000
vn -0.000000 -0.000000 -1.000000
vn 0.000000 0.000000 -1.000000
vn 1.000000 0.000000 0.000000
vn 1.000000 0.000000 0.000000
vn 1.000000 0.000000 0.000000
vn 1.000000 0.000000 0.000000
vn 0.000000 0.000000 1.000000
vn 0.000000 0.000000 1.000000
vn 0.000000 0.000000 1.000000
vn -0.000000 -0.000000 1.000000
vn -1.000000 0.000000 0.000000
vn -1.000000 0.000000 0.000000
vn -1.000000 0.000000 0.000000
vn -1.000000 0.000000 0.000000
vn 0.000000 0.000000 1.000000
vn 0.000000 0.000000 1.000000
vn 0.000000 1.000000 0.000000
vn 0.000000 1.000000 0.000000
vn 0.000000 0.000000 -1.000000
vn 0.000000 0.000000 -1.000000
vn 0.000000 -1.000000 -0.000000
vn 0.000000 -1.000000 -0.000000
vn 0.000000 0.000000 -1.000000
vn 0.000000 -0.000000 -1.000000
vn 0.000000 -1.000000 0.000000
vn 0.000000 -1.000000 0.000000
vn 0.000000 0.000000 1.000000
vn 0.000000 0.000000 1.000000
vn 0.000000 -1.000000 0.000000
vn 0.000000 -1.000000 0.000000
vn 0.000000 -1.000000 0.000000
vn 0.000000 -1.000000 0.000000
vn 0.000000 0.000000 1.000000
vn -0.000000 -0.000000 1.000000
vn 0.000000 -1.000000 0.000000
vn 0.000000 -1.000000 0.000000
vn -0.000000 0.000000 -1.000000
vn -0.000000 -0.000000 -1.000000
vn 0.000000 -1.000000 -0.000000
vn 0.000000 -1.000000 -0.000000
vn 0.000000 0.000000 -1.000000
vn 0.000000 0.000000 -1.000000
vn 0.000000 1.000000 0.000000
vn 0.000000 1.000000 0.000000
vn 0.000000 0.000000 1.000000
vn 0.000000 0.000000 1.000000
vn 0.000000 1.000000 0.000000
vn 0.000000 1.000000 0.000000
vn 0.000000 1.000000 0.000000
vn 0.000000 1.000000 0.000000
vn 1.000000 0.000000 0.000000
vn 1.000000 0.000000 0.000000
vn 0.000000 -1.000000 0.000000
vn 0.000000 -1.000000 0.000000
vn 1.000000 0.000000 0.000000
vn 1.000000 0.000000 0.000000
vn 0.000000 -1.000000 0.000000
vn 0.000000 -1.000000 0.000000
vn 0.000000 -1.000000 0.000000
vn 0.000000 -1.000000 0.000000
vn 0.000000 -1.000000 -0.000002
vn 0.000000 -1.000000 -0.000002
vn 0.000000 -1.000000 0.000000
vn 0.000000 -1.000000 0.000000
vn 0.000000 -1.000000 0.000000
vn 0.000000 -1.000000 0.000000
vn -1.000000 0.000000 0.000000
vn -1.000000 0.000000 0.000000
vn 0.000000 -1.000000 0.000000
vn 0.000000 -1.000000 0.000000
vn -1.000000 0.000000 0.000000
vn -1.000000 0.000000 0.000000
vn 0.000000 -1.000000 0.000000
vn 0.000000 -1.000000 0.000000
vn -1.000000 0.000000 0.000000
vn -1.000000 0.000000 0.000000
vn 0.000000 -1.000000 0.000000
vn 0.000000 -1.000000 0.000000
vn 0.000000 -1.000000 0.000000
vn 0.000000 -1.000000 0.000000
vn 0.000000 -1.000000 0.000001
vn 0.000000 -1.000000 0.000001
vn 0.000000 -1.000000 0.000000
vn 0.000000 -1.000000 0.000000
vn 0.000000 -1.000000 0.000000
vn 0.000000 -1.000000 0.000000
vn 1.000000 0.000000 0.000000
vn 1.000000 0.000000 0.000000
vn 0.000000 -1.000000 0.000000
vn 0.000000 -1.000000 0.000000
vn 1.000000 0.000000 0.000000
vn 1.000000 0.000000 0.000000
vn 0.000000 1.000000 0.000000
vn 0.000000 1.000000 0.000000
vn 0.000000 1.000000 0.000000
vn 0.000000 1.000000 0.000000
vn -1.000000 0.000000 0.000000
vn -1.000000 0.000000 0.000000
vn -1.000000 -0.000001 0.000000
vn -1.000000 -0.000001 0.000000
vn -1.000000 -0.000001 0.000000
vn -1.000000 -0.000001 0.000000
vn 0.000000 0.000000 -1.000000
vn 0.000000 0.000000 -1.000000
vn 0.000000 0.000000 -1.000000
vn 0.000000 0.000000 -1.000000
vn 1.000000 0.000001 0.000000
vn 1.000000 0.000001 0.000000
vn 0.000000 0.000000 1.000000
vn 0.000000 0.000000 1.000000
vn 0.000000 0.000001 -1.000000
vn 0.000000 0.000001 -1.000000
vn 0.000000 0.000001 -1.000000
vn 0.000000 0.000001 -1.000000
vn 1.000000 -0.000001 0.000000
vn 1.000000 -0.000001 0.000000
vn 1.000000 -0.000001 0.000000
vn 1.000000 -0.000001 0.000000
vn -0.000000 -0.000001 1.000000
vn -0.000000 -0.000001 1.000000
vn -1.000000 0.000001 0.000000
vn -1.000000 0.000001 0.000000
vn -0.000000 -0.000001 -1.000000
vn -0.000000 -0.000001 -1.000000
vn 1.000000 -0.000002 -0.000000
vn 1.000000 -0.000002 -0.000000
vn 1.000000 -0.000002 -0.000000
vn 1.000000 -0.000002 -0.000000
vn 0.000000 0.000001 1.000000
vn 0.000000 0.000001 1.000000
vn 0.000000 0.000001 1.000000
vn 0.000000 0.000001 1.000000
vn -1.000000 0.000002 0.000000
vn -1.000000 0.000002 0.000000
vn 0.000000 0.000001 1.000000
vn 0.000000 0.000001 1.000000
vn 0.000000 0.000001 1.000000
vn 0.000000 0.000001 1.000000
vn -1.000000 -0.000001 -0.000000
vn -1.000000 -0.000001 -0.000000
vn -1.000000 -0.000001 -0.000000
vn -1.000000 -0.000001 -0.000000
vn 0.000000 -0.000001 -1.000000
vn 0.000000 -0.000001 -1.000000
vn 1.000000 0.000001 0.000000
vn 1.000000 0.000001 0.000000
s 1
g pCube1
usemtl initialShadingGroup
f 17/23/1 18/32/2 32/89/3 25/90/4
s 2
f 34/3/5 35/4/6 54/5/7 55/6/8
s 3
f 19/91/9 20/92/10 30/93/11 31/94/12
s 4
f 48/7/13 49/8/14 40/9/15 41/10/16
s 5
f 36/1/17 37/2/18 52/11/19 53/12/20
s 6
f 56/13/21 45/14/22 44/19/23 33/20/24
s 7
f 20/15/25 21/16/26 29/17/27 30/18/28
s 8
f 51/24/29 52/25/30 37/26/31 38/27/32
s 9
f 24/28/33 17/29/34 25/30/35 26/31/36
s 10
f 43/33/37 44/34/38 45/35/39 46/36/40
s 11
f 21/95/41 22/96/42 28/97/43 29/98/44
s 12
f 50/21/45 51/22/46 38/41/47 39/46/48
s 13
f 23/99/49 24/100/50 26/101/51 27/102/52
s 14
f 42/48/53 43/55/54 46/57/55 47/66/56
s 1
f 18/32/2 17/23/1 2/103/57 4/104/58
s 2
f 53/37/59 54/5/7 35/4/6 36/38/60
s 3
f 20/92/10 19/91/9 6/105/61 8/106/62
s 7
f 21/16/26 20/15/25 8/39/63 10/40/64
s 11
f 22/96/42 21/95/41 10/107/65 14/108/66
s 4
f 39/42/67 40/9/15 49/8/14 50/43/68
s 13
f 11/109/69 24/100/50 23/99/49 15/110/70
s 9
f 2/44/71 17/29/34 24/28/33 11/45/72
f 26/31/36 25/30/35 1/47/73 12/49/74
s 13
f 27/102/52 26/101/51 12/111/75 16/112/76
s 4
f 47/50/77 48/7/13 41/10/16 42/51/78
s 11
f 9/113/79 29/98/44 28/97/43 13/114/80
s 7
f 7/52/81 30/18/28 29/17/27 9/53/82
s 3
f 5/115/83 31/94/12 30/93/11 7/116/84
s 2
f 33/54/85 34/3/5 55/6/8 56/56/86
s 1
f 1/117/87 25/90/4 32/89/3 3/118/88
s 2
f 3/58/89 32/59/90 34/3/5 33/54/85
f 32/59/90 18/60/91 35/4/6 34/3/5
f 36/38/60 35/4/6 18/60/91 4/61/92
s 5
f 2/68/93 37/2/18 36/1/17 4/71/94
s 8
f 38/27/32 37/26/31 2/44/95 11/45/96
s 12
f 39/46/48 38/41/47 11/143/97 15/144/98
s off
f 58/62/99 57/63/100 59/64/101 60/65/102
s 4
f 40/9/15 23/67/103 27/69/104 41/10/16
s off
f 62/70/105 61/72/106 63/73/107 64/74/108
s 14
f 12/145/109 43/55/54 42/48/53 16/146/110
s 10
f 1/47/111 44/34/38 43/33/37 12/49/112
s 6
f 33/20/24 44/19/23 1/147/113 3/148/114
s 10
f 46/36/40 45/35/39 7/52/115 9/53/116
s 14
f 47/66/56 46/57/55 9/149/117 13/150/118
s off
f 65/75/119 66/76/120 67/77/121 68/78/122
s 4
f 28/79/123 22/80/124 49/8/14 48/7/13
s off
f 70/81/125 69/82/126 71/83/127 72/84/128
s 12
f 10/151/129 51/22/46 50/21/45 14/152/130
s 8
f 8/39/131 52/25/30 51/24/29 10/40/132
s 5
f 53/12/20 52/11/19 8/153/133 6/154/134
s 2
f 19/85/135 54/5/7 53/37/59 6/86/136
f 54/5/7 19/85/135 31/87/137 55/6/8
f 56/56/86 55/6/8 31/87/137 5/88/138
s 6
f 7/155/139 45/14/22 56/13/21 5/156/140
s off
f 23/157/141 40/158/142 57/159/143 58/160/144
f 40/119/145 39/120/146 59/121/147 57/122/148
s 12
f 39/46/48 15/144/98 60/161/149 59/162/150
s 13
f 15/110/70 23/99/49 58/123/151 60/124/152
s off
f 42/125/153 41/126/154 61/127/155 62/128/156
f 41/163/157 27/164/158 63/165/159 61/166/160
s 13
f 27/102/52 16/112/76 64/129/161 63/130/162
s 14
f 16/146/110 42/48/53 62/167/163 64/168/164
s 11
f 13/114/80 28/97/43 66/131/165 65/132/166
s off
f 28/169/167 48/170/168 67/171/169 66/172/170
f 48/133/171 47/134/172 68/135/173 67/136/174
s 14
f 47/66/56 13/150/118 65/173/175 68/174/176
s off
f 50/137/177 49/138/178 69/139/179 70/140/180
f 49/175/181 22/176/182 71/177/183 69/178/184
s 11
f 22/96/42 14/108/66 72/141/185 71/142/186
s 12
f 14/152/130 50/21/45 70/179/187 72/180/188
