# This file uses centimeters as units for non-parametric coordinates.

v -0.248036 0.862556 -0.782460
v -0.248036 0.802332 -0.842684
v -0.248036 0.862556 -0.902908
v -0.248036 0.922780 -0.842684
v -0.187812 0.862556 -0.757514
v -0.187812 0.777386 -0.842684
v -0.187812 0.862556 -0.927854
v -0.187812 0.947726 -0.842684
v -0.127588 0.862556 -0.782460
v -0.127588 0.802332 -0.842684
v -0.127588 0.862556 -0.902908
v -0.127588 0.922780 -0.842684
v -0.272982 0.862556 -0.842684
v -0.102642 0.862556 -0.842684
v 0.127741 0.862556 -0.902908
v 0.127741 0.802332 -0.842684
v 0.127741 0.862556 -0.782460
v 0.127741 0.922780 -0.842684
v 0.067517 0.862556 -0.927854
v 0.067517 0.777386 -0.842684
v 0.067517 0.862556 -0.757514
v 0.067517 0.947726 -0.842684
v 0.007293 0.862556 -0.902908
v 0.007293 0.802332 -0.842684
v 0.007293 0.862556 -0.782460
v 0.007293 0.922780 -0.842684
v 0.152687 0.862556 -0.842684
v -0.017653 0.862556 -0.842684
v -0.128522 0.000000 -0.997066
v -0.128522 0.000000 0.000000
v -0.128522 2.000000 0.000000
v -0.128522 2.000000 -0.997066
v 0.000000 2.000000 0.000000
v 0.000000 2.000000 -0.997066
v 0.000000 0.000000 0.000000
v 0.000000 0.000000 -0.997066
vt 0.920074 0.454015
vt 0.913758 0.551866
vt 0.846281 0.547444
vt 0.848359 0.425252
vt 0.916919 0.655198
vt 0.847902 0.654867
vt 0.919510 0.758967
vt 0.849523 0.762290
vt 0.925043 0.859346
vt 0.847445 0.884482
vt 0.776292 0.550768
vt 0.770759 0.450390
vt 0.778886 0.654539
vt 0.782047 0.757869
vt 0.775732 0.855722
vt 0.972444 0.508343
vt 0.971101 0.601750
vt 0.973935 0.704277
vt 0.977812 0.803816
vt 0.717991 0.505921
vt 0.721869 0.605461
vt 0.724704 0.707989
vt 0.723360 0.801394
vt 0.920074 0.454015
vt 0.913758 0.551866
vt 0.846281 0.547444
vt 0.848359 0.425252
vt 0.916919 0.655198
vt 0.847902 0.654867
vt 0.919510 0.758967
vt 0.849523 0.762290
vt 0.925043 0.859346
vt 0.847445 0.884482
vt 0.776292 0.550768
vt 0.770759 0.450390
vt 0.778886 0.654539
vt 0.782047 0.757869
vt 0.775732 0.855722
vt 0.972444 0.508343
vt 0.971101 0.601750
vt 0.973935 0.704277
vt 0.977812 0.803816
vt 0.717991 0.505921
vt 0.721869 0.605461
vt 0.724704 0.707989
vt 0.723360 0.801394
vt 0.354225 0.171555
vt 0.353966 0.190244
vt 0.063133 0.186218
vt 0.063392 0.167529
vt 0.935038 0.179597
vt 0.934779 0.198286
vt 0.789789 0.196279
vt 0.790048 0.177589
vt 0.498956 0.192252
vt 0.499215 0.173563
vt 0.068476 0.344738
vt 0.366593 0.346295
vt 0.363469 0.944283
vt 0.065352 0.942726
vt 0.395990 0.347949
vt 0.694107 0.349506
vt 0.690983 0.947494
vt 0.392866 0.945937
vn -0.281084 -0.678598 0.678599
vn -0.281084 -0.678598 0.678599
vn -0.281084 -0.678598 0.678599
vn -0.281084 -0.678598 0.678599
vn -0.281085 -0.678598 -0.678599
vn -0.281085 -0.678598 -0.678598
vn -0.281085 -0.678598 -0.678599
vn -0.281085 -0.678598 -0.678598
vn -0.281084 0.678599 -0.678598
vn -0.281084 0.678599 -0.678598
vn -0.281084 0.678599 -0.678598
vn -0.281084 0.678599 -0.678598
vn -0.281085 0.678598 0.678598
vn -0.281085 0.678598 0.678598
vn -0.281085 0.678598 0.678598
vn -0.281085 0.678598 0.678598
vn 0.281084 -0.678598 0.678599
vn 0.281084 -0.678598 0.678599
vn 0.281084 -0.678598 0.678599
vn 0.281084 -0.678598 0.678599
vn 0.281085 -0.678598 -0.678599
vn 0.281085 -0.678598 -0.678599
vn 0.281085 -0.678598 -0.678599
vn 0.281085 -0.678598 -0.678599
vn 0.281085 0.678598 -0.678598
vn 0.281085 0.678598 -0.678598
vn 0.281085 0.678598 -0.678598
vn 0.281085 0.678598 -0.678598
vn 0.281085 0.678598 0.678598
vn 0.281085 0.678598 0.678598
vn 0.281085 0.678598 0.678598
vn 0.281085 0.678598 0.678598
vn -0.862857 -0.357406 0.357406
vn -0.862857 -0.357406 0.357406
vn -0.862857 -0.357406 0.357406
vn -0.862856 -0.357407 -0.357407
vn -0.862856 -0.357407 -0.357407
vn -0.862856 -0.357407 -0.357407
vn -0.862856 0.357407 -0.357406
vn -0.862856 0.357407 -0.357406
vn -0.862856 0.357407 -0.357406
vn -0.862857 0.357406 0.357405
vn -0.862857 0.357406 0.357405
vn -0.862857 0.357406 0.357405
vn 0.862857 -0.357406 0.357405
vn 0.862857 -0.357406 0.357405
vn 0.862857 -0.357406 0.357405
vn 0.862856 -0.357407 -0.357406
vn 0.862856 -0.357407 -0.357406
vn 0.862856 -0.357407 -0.357406
vn 0.862856 0.357407 -0.357407
vn 0.862856 0.357407 -0.357407
vn 0.862856 0.357407 -0.357407
vn 0.862857 0.357406 0.357406
vn 0.862857 0.357406 0.357406
vn 0.862857 0.357406 0.357406
vn 0.281084 -0.678598 -0.678599
vn 0.281084 -0.678598 -0.678599
vn 0.281084 -0.678598 -0.678599
vn 0.281084 -0.678598 -0.678599
vn 0.281085 -0.678598 0.678599
vn 0.281085 -0.678598 0.678598
vn 0.281085 -0.678598 0.678599
vn 0.281085 -0.678598 0.678598
vn 0.281084 0.678599 0.678598
vn 0.281084 0.678599 0.678598
vn 0.281084 0.678599 0.678598
vn 0.281084 0.678599 0.678598
vn 0.281085 0.678598 -0.678598
vn 0.281085 0.678598 -0.678598
vn 0.281085 0.678598 -0.678598
vn 0.281085 0.678598 -0.678598
vn -0.281084 -0.678598 -0.678599
vn -0.281084 -0.678598 -0.678599
vn -0.281084 -0.678598 -0.678599
vn -0.281084 -0.678598 -0.678599
vn -0.281085 -0.678598 0.678599
vn -0.281085 -0.678598 0.678599
vn -0.281085 -0.678598 0.678599
vn -0.281085 -0.678598 0.678599
vn -0.281085 0.678598 0.678598
vn -0.281085 0.678598 0.678598
vn -0.281085 0.678598 0.678598
vn -0.281085 0.678598 0.678598
vn -0.281085 0.678598 -0.678598
vn -0.281085 0.678598 -0.678598
vn -0.281085 0.678598 -0.678598
vn -0.281085 0.678598 -0.678598
vn 0.862857 -0.357406 -0.357406
vn 0.862857 -0.357406 -0.357406
vn 0.862857 -0.357406 -0.357406
vn 0.862856 -0.357407 0.357407
vn 0.862856 -0.357407 0.357407
vn 0.862856 -0.357407 0.357407
vn 0.862856 0.357407 0.357406
vn 0.862856 0.357407 0.357406
vn 0.862856 0.357407 0.357406
vn 0.862857 0.357406 -0.357405
vn 0.862857 0.357406 -0.357405
vn 0.862857 0.357406 -0.357405
vn -0.862857 -0.357406 -0.357405
vn -0.862857 -0.357406 -0.357405
vn -0.862857 -0.357406 -0.357405
vn -0.862856 -0.357407 0.357406
vn -0.862856 -0.357407 0.357406
vn -0.862856 -0.357407 0.357406
vn -0.862856 0.357407 0.357407
vn -0.862856 0.357407 0.357407
vn -0.862856 0.357407 0.357407
vn -0.862857 0.357406 -0.357406
vn -0.862857 0.357406 -0.357406
vn -0.862857 0.357406 -0.357406
vn 0.000000 0.000000 1.000000
vn 0.000000 0.000000 1.000000
vn 0.000000 0.000000 1.000000
vn 0.000000 0.000000 1.000000
vn 0.000000 1.000000 0.000000
vn 0.000000 1.000000 0.000000
vn 0.000000 1.000000 0.000000
vn 0.000000 1.000000 0.000000
vn 0.000000 0.000000 -1.000000
vn 0.000000 0.000000 -1.000000
vn 0.000000 0.000000 -1.000000
vn 0.000000 0.000000 -1.000000
vn -1.000000 0.000000 0.000000
vn -1.000000 0.000000 0.000000
vn -1.000000 0.000000 0.000000
vn -1.000000 0.000000 0.000000
vn 0.000000 -1.000000 0.000000
vn 0.000000 -1.000000 0.000000
vn 0.000000 -1.000000 0.000000
vn 0.000000 -1.000000 0.000000
vn 1.000000 0.000000 0.000000
vn 1.000000 0.000000 0.000000
vn 1.000000 0.000000 0.000000
vn 1.000000 0.000000 0.000000
f 1/1/1 2/2/2 6/3/3 5/4/4
f 2/2/5 3/5/6 7/6/7 6/3/8
f 3/5/9 4/7/10 8/8/11 7/6/12
f 4/7/13 1/9/14 5/10/15 8/8/16
f 5/4/17 6/3/18 10/11/19 9/12/20
f 6/3/21 7/6/22 11/13/23 10/11/24
f 7/6/25 8/8/26 12/14/27 11/13/28
f 8/8/29 5/10/30 9/15/31 12/14/32
f 2/2/33 1/1/34 13/16/35
f 3/5/36 2/2/37 13/17/38
f 4/7/39 3/5/40 13/18/41
f 1/9/42 4/7/43 13/19/44
f 9/12/45 10/11/46 14/20/47
f 10/11/48 11/13/49 14/21/50
f 11/13/51 12/14/52 14/22/53
f 12/14/54 9/15/55 14/23/56
f 15/24/57 16/25/58 20/26/59 19/27/60
f 16/25/61 17/28/62 21/29/63 20/26/64
f 17/28/65 18/30/66 22/31/67 21/29/68
f 18/30/69 15/32/70 19/33/71 22/31/72
f 19/27/73 20/26/74 24/34/75 23/35/76
f 20/26/77 21/29/78 25/36/79 24/34/80
f 21/29/81 22/31/82 26/37/83 25/36/84
f 22/31/85 19/33/86 23/38/87 26/37/88
f 16/25/89 15/24/90 27/39/91
f 17/28/92 16/25/93 27/40/94
f 18/30/95 17/28/96 27/41/97
f 15/32/98 18/30/99 27/42/100
f 23/35/101 24/34/102 28/43/103
f 24/34/104 25/36/105 28/44/106
f 25/36/107 26/37/108 28/45/109
f 26/37/110 23/38/111 28/46/112
f 30/47/113 35/48/114 33/49/115 31/50/116
f 31/51/117 33/52/118 34/53/119 32/54/120
f 32/54/121 34/53/122 36/55/123 29/56/124
f 31/57/125 32/58/126 29/59/127 30/60/128
f 30/47/129 29/56/130 36/55/131 35/48/132
f 35/61/133 36/62/134 34/63/135 33/64/136
