# This file uses centimeters as units for non-parametric coordinates.

mtllib Pallet.mtl
g default
v -0.067947 0.092958 -1.175164
v -0.067947 0.092958 -1.051102
v -0.067947 0.134966 -1.175164
v -0.067947 0.134966 -1.051102
v 1.432053 0.134966 -1.175164
v 1.432053 0.134966 -1.051102
v 1.432053 0.092958 -1.175164
v 1.432053 0.092958 -1.051102
v -0.067947 0.092958 -1.008020
v -0.067947 0.092958 -0.883958
v -0.067947 0.134966 -1.008020
v -0.067947 0.134966 -0.883958
v 1.432053 0.134966 -1.008020
v 1.432053 0.134966 -0.883958
v 1.432053 0.092958 -1.008020
v 1.432053 0.092958 -0.883958
v -0.067947 0.092958 -0.297975
v -0.067947 0.092958 -0.173913
v -0.067947 0.134966 -0.297975
v -0.067947 0.134966 -0.173913
v 1.432053 0.134966 -0.297975
v 1.432053 0.134966 -0.173913
v 1.432053 0.092958 -0.297975
v 1.432053 0.092958 -0.173913
v -0.067947 0.092958 -0.476340
v -0.067947 0.092958 -0.352278
v -0.067947 0.134966 -0.476340
v -0.067947 0.134966 -0.352278
v 1.432053 0.134966 -0.476340
v 1.432053 0.134966 -0.352278
v 1.432053 0.092958 -0.476340
v 1.432053 0.092958 -0.352278
v -0.067947 0.092958 -0.658509
v -0.067947 0.092958 -0.534447
v -0.067947 0.134966 -0.658509
v -0.067947 0.134966 -0.534447
v 1.432053 0.134966 -0.658509
v 1.432053 0.134966 -0.534447
v 1.432053 0.092958 -0.658509
v 1.432053 0.092958 -0.534447
v -0.067947 0.092958 -0.824861
v -0.067947 0.092958 -0.700799
v -0.067947 0.134966 -0.824861
v -0.067947 0.134966 -0.700799
v 1.432053 0.134966 -0.824861
v 1.432053 0.134966 -0.700799
v 1.432053 0.092958 -0.824861
v 1.432053 0.092958 -0.700799
v -0.067947 -0.042008 -0.830894
v -0.067947 -0.042008 -0.706832
v -0.067947 0.000000 -0.830894
v -0.067947 0.000000 -0.706832
v 1.432053 0.000000 -0.830894
v 1.432053 0.000000 -0.706832
v 1.432053 -0.042008 -0.830894
v 1.432053 -0.042008 -0.706832
v -0.067947 0.092958 -1.500000
v -0.067947 0.092958 -1.375938
v -0.067947 0.134966 -1.500000
v -0.067947 0.134966 -1.375938
v 1.432053 0.134966 -1.500000
v 1.432053 0.134966 -1.375938
v 1.432053 0.092958 -1.500000
v 1.432053 0.092958 -1.375938
v -0.067947 0.092958 -1.332722
v -0.067947 0.092958 -1.208660
v -0.067947 0.134966 -1.332722
v -0.067947 0.134966 -1.208660
v 1.432053 0.134966 -1.332722
v 1.432053 0.134966 -1.208660
v 1.432053 0.092958 -1.332722
v 1.432053 0.092958 -1.208660
v -0.067947 0.092958 -0.124062
v -0.067947 0.092958 0.000000
v -0.067947 0.134966 -0.124062
v -0.067947 0.134966 0.000000
v 1.432053 0.134966 -0.124062
v 1.432053 0.134966 0.000000
v 1.432053 0.092958 -0.124062
v 1.432053 0.092958 0.000000
v -0.045321 0.000000 0.000000
v 0.022626 0.000000 0.000000
v -0.045321 0.092958 0.000000
v 0.022626 0.092958 0.000000
v -0.045321 0.092958 -1.500000
v 0.022626 0.092958 -1.500000
v -0.045321 0.000000 -1.500000
v 0.022626 0.000000 -1.500000
v -0.067947 -0.042008 -0.124062
v -0.067947 -0.042008 0.000000
v -0.067947 0.000000 -0.124062
v -0.067947 0.000000 0.000000
v 1.432053 0.000000 -0.124062
v 1.432053 0.000000 0.000000
v 1.432053 -0.042008 -0.124062
v 1.432053 -0.042008 0.000000
v -0.067947 -0.042008 -1.500000
v -0.067947 -0.042008 -1.375938
v -0.067947 0.000000 -1.500000
v -0.067947 0.000000 -1.375938
v 1.432053 0.000000 -1.500000
v 1.432053 0.000000 -1.375938
v 1.432053 -0.042008 -1.500000
v 1.432053 -0.042008 -1.375938
v 1.346176 0.000000 0.000000
v 1.414123 0.000000 0.000000
v 1.346176 0.092958 0.000000
v 1.414123 0.092958 0.000000
v 1.346176 0.092958 -1.500000
v 1.414123 0.092958 -1.500000
v 1.346176 0.000000 -1.500000
v 1.414123 0.000000 -1.500000
vt 0.698452 0.082356
vt 0.627730 0.081562
vt 0.793100 0.083423
vt 0.722399 0.082626
vt 0.783440 0.938455
vt 0.688498 0.961309
vt 0.807384 0.938727
vt 0.688778 0.937380
vt 0.618065 0.936578
vt 0.817043 0.083692
vt 0.617804 0.960504
vt 0.712723 0.937652
vt 0.627979 0.057627
vt 0.698707 0.058396
vt 0.698452 0.082356
vt 0.627730 0.081562
vt 0.627979 0.057627
vt 0.698707 0.058396
vt 0.722399 0.082626
vt 0.793100 0.083423
vt 0.783440 0.938455
vt 0.712723 0.937652
vt 0.688498 0.961309
vt 0.617804 0.960504
vt 0.618065 0.936578
vt 0.688778 0.937380
vt 0.817043 0.083692
vt 0.807384 0.938727
vt 0.698452 0.082356
vt 0.627730 0.081562
vt 0.627979 0.057627
vt 0.698707 0.058396
vt 0.722399 0.082626
vt 0.793100 0.083423
vt 0.783440 0.938455
vt 0.712723 0.937652
vt 0.688498 0.961309
vt 0.617804 0.960504
vt 0.618065 0.936578
vt 0.688778 0.937380
vt 0.817043 0.083692
vt 0.807384 0.938727
vt 0.698452 0.082356
vt 0.627730 0.081562
vt 0.627979 0.057627
vt 0.698707 0.058396
vt 0.722399 0.082626
vt 0.793100 0.083423
vt 0.783440 0.938455
vt 0.712723 0.937652
vt 0.688498 0.961309
vt 0.617804 0.960504
vt 0.618065 0.936578
vt 0.688778 0.937380
vt 0.817043 0.083692
vt 0.807384 0.938727
vt 0.698452 0.082356
vt 0.627730 0.081562
vt 0.627979 0.057627
vt 0.698707 0.058396
vt 0.722399 0.082626
vt 0.793100 0.083423
vt 0.783440 0.938455
vt 0.712723 0.937652
vt 0.688498 0.961309
vt 0.617804 0.960504
vt 0.618065 0.936578
vt 0.688778 0.937380
vt 0.817043 0.083692
vt 0.807384 0.938727
vt 0.698452 0.082356
vt 0.627730 0.081562
vt 0.627979 0.057627
vt 0.698707 0.058396
vt 0.722399 0.082626
vt 0.793100 0.083423
vt 0.783440 0.938455
vt 0.712723 0.937652
vt 0.688498 0.961309
vt 0.617804 0.960504
vt 0.618065 0.936578
vt 0.688778 0.937380
vt 0.817043 0.083692
vt 0.807384 0.938727
vt 0.698452 0.082356
vt 0.627730 0.081562
vt 0.627979 0.057627
vt 0.698707 0.058396
vt 0.722399 0.082626
vt 0.793100 0.083423
vt 0.783440 0.938455
vt 0.712723 0.937652
vt 0.688498 0.961309
vt 0.617804 0.960504
vt 0.618065 0.936578
vt 0.688778 0.937380
vt 0.817043 0.083692
vt 0.807384 0.938727
vt 0.698452 0.082356
vt 0.627730 0.081562
vt 0.627979 0.057627
vt 0.698707 0.058396
vt 0.722399 0.082626
vt 0.793100 0.083423
vt 0.783440 0.938455
vt 0.712723 0.937652
vt 0.688498 0.961309
vt 0.617804 0.960504
vt 0.618065 0.936578
vt 0.688778 0.937380
vt 0.817043 0.083692
vt 0.807384 0.938727
vt 0.698452 0.082356
vt 0.627730 0.081562
vt 0.627979 0.057627
vt 0.698707 0.058396
vt 0.722399 0.082626
vt 0.793100 0.083423
vt 0.783440 0.938455
vt 0.712723 0.937652
vt 0.688498 0.961309
vt 0.617804 0.960504
vt 0.618065 0.936578
vt 0.688778 0.937380
vt 0.817043 0.083692
vt 0.807384 0.938727
vt 0.698452 0.082356
vt 0.627730 0.081562
vt 0.627979 0.057627
vt 0.698707 0.058396
vt 0.722399 0.082626
vt 0.793100 0.083423
vt 0.783440 0.938455
vt 0.712723 0.937652
vt 0.688498 0.961309
vt 0.617804 0.960504
vt 0.618065 0.936578
vt 0.688778 0.937380
vt 0.817043 0.083692
vt 0.807384 0.938727
vt 0.274313 0.053073
vt 0.274708 0.088895
vt 0.225702 0.089428
vt 0.225306 0.053600
vt 0.359533 0.087972
vt 0.395352 0.087583
vt 0.403948 0.878320
vt 0.368129 0.878708
vt 0.234693 0.915981
vt 0.234306 0.880157
vt 0.283309 0.879625
vt 0.283696 0.915449
vt 0.319126 0.879238
vt 0.310529 0.088505
vt 0.698452 0.082356
vt 0.627730 0.081562
vt 0.627979 0.057627
vt 0.698707 0.058396
vt 0.722399 0.082626
vt 0.793100 0.083423
vt 0.783440 0.938455
vt 0.712723 0.937652
vt 0.688498 0.961309
vt 0.617804 0.960504
vt 0.618065 0.936578
vt 0.688778 0.937380
vt 0.817043 0.083692
vt 0.807384 0.938727
vt 0.698452 0.082356
vt 0.627730 0.081562
vt 0.627979 0.057627
vt 0.698707 0.058396
vt 0.722399 0.082626
vt 0.793100 0.083423
vt 0.783440 0.938455
vt 0.712723 0.937652
vt 0.688498 0.961309
vt 0.617804 0.960504
vt 0.618065 0.936578
vt 0.688778 0.937380
vt 0.817043 0.083692
vt 0.807384 0.938727
vt 0.274313 0.053073
vt 0.274708 0.088895
vt 0.225702 0.089428
vt 0.225306 0.053600
vt 0.359533 0.087972
vt 0.395352 0.087583
vt 0.403948 0.878320
vt 0.368129 0.878708
vt 0.234693 0.915981
vt 0.234306 0.880157
vt 0.283309 0.879625
vt 0.283696 0.915449
vt 0.319126 0.879238
vt 0.310529 0.088505
vn -1.000000 0.000000 0.000000
vn -1.000000 0.000000 0.000000
vn -1.000000 0.000000 0.000000
vn -1.000000 0.000000 0.000000
vn 0.000000 1.000000 0.000000
vn 0.000000 1.000000 0.000000
vn 0.000000 1.000000 0.000000
vn 0.000000 1.000000 0.000000
vn 1.000000 0.000000 0.000000
vn 1.000000 0.000000 0.000000
vn 1.000000 0.000000 0.000000
vn 1.000000 0.000000 0.000000
vn 0.000000 -1.000000 0.000000
vn 0.000000 -1.000000 0.000000
vn 0.000000 -1.000000 0.000000
vn 0.000000 -1.000000 0.000000
vn 0.000000 0.000000 1.000000
vn 0.000000 0.000000 1.000000
vn 0.000000 0.000000 1.000000
vn 0.000000 0.000000 1.000000
vn 0.000000 0.000000 -1.000000
vn 0.000000 0.000000 -1.000000
vn 0.000000 0.000000 -1.000000
vn 0.000000 0.000000 -1.000000
vn -1.000000 0.000000 0.000000
vn -1.000000 0.000000 0.000000
vn -1.000000 0.000000 0.000000
vn -1.000000 0.000000 0.000000
vn 0.000000 1.000000 0.000000
vn 0.000000 1.000000 0.000000
vn 0.000000 1.000000 0.000000
vn 0.000000 1.000000 0.000000
vn 1.000000 0.000000 0.000000
vn 1.000000 0.000000 0.000000
vn 1.000000 0.000000 0.000000
vn 1.000000 0.000000 0.000000
vn 0.000000 -1.000000 0.000000
vn 0.000000 -1.000000 0.000000
vn 0.000000 -1.000000 0.000000
vn 0.000000 -1.000000 0.000000
vn 0.000000 0.000000 1.000000
vn 0.000000 0.000000 1.000000
vn 0.000000 0.000000 1.000000
vn 0.000000 0.000000 1.000000
vn 0.000000 0.000000 -1.000000
vn 0.000000 0.000000 -1.000000
vn 0.000000 0.000000 -1.000000
vn 0.000000 0.000000 -1.000000
vn -1.000000 0.000000 0.000000
vn -1.000000 0.000000 0.000000
vn -1.000000 0.000000 0.000000
vn -1.000000 0.000000 0.000000
vn 0.000000 1.000000 0.000000
vn 0.000000 1.000000 0.000000
vn 0.000000 1.000000 0.000000
vn 0.000000 1.000000 0.000000
vn 1.000000 0.000000 0.000000
vn 1.000000 0.000000 0.000000
vn 1.000000 0.000000 0.000000
vn 1.000000 0.000000 0.000000
vn 0.000000 -1.000000 0.000000
vn 0.000000 -1.000000 0.000000
vn 0.000000 -1.000000 0.000000
vn 0.000000 -1.000000 0.000000
vn 0.000000 0.000000 1.000000
vn 0.000000 0.000000 1.000000
vn 0.000000 0.000000 1.000000
vn 0.000000 0.000000 1.000000
vn 0.000000 0.000000 -1.000000
vn 0.000000 0.000000 -1.000000
vn 0.000000 0.000000 -1.000000
vn 0.000000 0.000000 -1.000000
vn -1.000000 0.000000 0.000000
vn -1.000000 0.000000 0.000000
vn -1.000000 0.000000 0.000000
vn -1.000000 0.000000 0.000000
vn 0.000000 1.000000 0.000000
vn 0.000000 1.000000 0.000000
vn 0.000000 1.000000 0.000000
vn 0.000000 1.000000 0.000000
vn 1.000000 0.000000 0.000000
vn 1.000000 0.000000 0.000000
vn 1.000000 0.000000 0.000000
vn 1.000000 0.000000 0.000000
vn 0.000000 -1.000000 0.000000
vn 0.000000 -1.000000 0.000000
vn 0.000000 -1.000000 0.000000
vn 0.000000 -1.000000 0.000000
vn 0.000000 0.000000 1.000000
vn 0.000000 0.000000 1.000000
vn 0.000000 0.000000 1.000000
vn 0.000000 0.000000 1.000000
vn 0.000000 0.000000 -1.000000
vn 0.000000 0.000000 -1.000000
vn 0.000000 0.000000 -1.000000
vn 0.000000 0.000000 -1.000000
vn -1.000000 0.000000 0.000000
vn -1.000000 0.000000 0.000000
vn -1.000000 0.000000 0.000000
vn -1.000000 0.000000 0.000000
vn 0.000000 1.000000 0.000000
vn 0.000000 1.000000 0.000000
vn 0.000000 1.000000 0.000000
vn 0.000000 1.000000 0.000000
vn 1.000000 0.000000 0.000000
vn 1.000000 0.000000 0.000000
vn 1.000000 0.000000 0.000000
vn 1.000000 0.000000 0.000000
vn 0.000000 -1.000000 0.000000
vn 0.000000 -1.000000 0.000000
vn 0.000000 -1.000000 0.000000
vn 0.000000 -1.000000 0.000000
vn 0.000000 0.000000 1.000000
vn 0.000000 0.000000 1.000000
vn 0.000000 0.000000 1.000000
vn 0.000000 0.000000 1.000000
vn 0.000000 0.000000 -1.000000
vn 0.000000 0.000000 -1.000000
vn 0.000000 0.000000 -1.000000
vn 0.000000 0.000000 -1.000000
vn -1.000000 0.000000 0.000000
vn -1.000000 0.000000 0.000000
vn -1.000000 0.000000 0.000000
vn -1.000000 0.000000 0.000000
vn 0.000000 1.000000 0.000000
vn 0.000000 1.000000 0.000000
vn 0.000000 1.000000 0.000000
vn 0.000000 1.000000 0.000000
vn 1.000000 0.000000 0.000000
vn 1.000000 0.000000 0.000000
vn 1.000000 0.000000 0.000000
vn 1.000000 0.000000 0.000000
vn 0.000000 -1.000000 0.000000
vn 0.000000 -1.000000 0.000000
vn 0.000000 -1.000000 0.000000
vn 0.000000 -1.000000 0.000000
vn 0.000000 0.000000 1.000000
vn 0.000000 0.000000 1.000000
vn 0.000000 0.000000 1.000000
vn 0.000000 0.000000 1.000000
vn 0.000000 0.000000 -1.000000
vn 0.000000 0.000000 -1.000000
vn 0.000000 0.000000 -1.000000
vn 0.000000 0.000000 -1.000000
vn -1.000000 0.000000 0.000000
vn -1.000000 0.000000 0.000000
vn -1.000000 0.000000 0.000000
vn -1.000000 0.000000 0.000000
vn 0.000000 1.000000 0.000000
vn 0.000000 1.000000 0.000000
vn 0.000000 1.000000 0.000000
vn 0.000000 1.000000 0.000000
vn 1.000000 0.000000 0.000000
vn 1.000000 0.000000 0.000000
vn 1.000000 0.000000 0.000000
vn 1.000000 0.000000 0.000000
vn 0.000000 -1.000000 0.000000
vn 0.000000 -1.000000 0.000000
vn 0.000000 -1.000000 0.000000
vn 0.000000 -1.000000 0.000000
vn 0.000000 0.000000 1.000000
vn 0.000000 0.000000 1.000000
vn 0.000000 0.000000 1.000000
vn 0.000000 0.000000 1.000000
vn 0.000000 0.000000 -1.000000
vn 0.000000 0.000000 -1.000000
vn 0.000000 0.000000 -1.000000
vn 0.000000 0.000000 -1.000000
vn -1.000000 0.000000 0.000000
vn -1.000000 0.000000 0.000000
vn -1.000000 0.000000 0.000000
vn -1.000000 0.000000 0.000000
vn 0.000000 1.000000 0.000000
vn 0.000000 1.000000 0.000000
vn 0.000000 1.000000 0.000000
vn 0.000000 1.000000 0.000000
vn 1.000000 0.000000 0.000000
vn 1.000000 0.000000 0.000000
vn 1.000000 0.000000 0.000000
vn 1.000000 0.000000 0.000000
vn 0.000000 -1.000000 0.000000
vn 0.000000 -1.000000 0.000000
vn 0.000000 -1.000000 0.000000
vn 0.000000 -1.000000 0.000000
vn 0.000000 0.000000 1.000000
vn 0.000000 0.000000 1.000000
vn 0.000000 0.000000 1.000000
vn 0.000000 0.000000 1.000000
vn 0.000000 0.000000 -1.000000
vn 0.000000 0.000000 -1.000000
vn 0.000000 0.000000 -1.000000
vn 0.000000 0.000000 -1.000000
vn -1.000000 0.000000 0.000000
vn -1.000000 0.000000 0.000000
vn -1.000000 0.000000 0.000000
vn -1.000000 0.000000 0.000000
vn 0.000000 1.000000 0.000000
vn 0.000000 1.000000 0.000000
vn 0.000000 1.000000 0.000000
vn 0.000000 1.000000 0.000000
vn 1.000000 0.000000 0.000000
vn 1.000000 0.000000 0.000000
vn 1.000000 0.000000 0.000000
vn 1.000000 0.000000 0.000000
vn 0.000000 -1.000000 0.000000
vn 0.000000 -1.000000 0.000000
vn 0.000000 -1.000000 0.000000
vn 0.000000 -1.000000 0.000000
vn 0.000000 0.000000 1.000000
vn 0.000000 0.000000 1.000000
vn 0.000000 0.000000 1.000000
vn 0.000000 0.000000 1.000000
vn 0.000000 0.000000 -1.000000
vn 0.000000 0.000000 -1.000000
vn 0.000000 0.000000 -1.000000
vn 0.000000 0.000000 -1.000000
vn -1.000000 0.000000 0.000000
vn -1.000000 0.000000 0.000000
vn -1.000000 0.000000 0.000000
vn -1.000000 0.000000 0.000000
vn 0.000000 1.000000 0.000000
vn 0.000000 1.000000 0.000000
vn 0.000000 1.000000 0.000000
vn 0.000000 1.000000 0.000000
vn 1.000000 0.000000 0.000000
vn 1.000000 0.000000 0.000000
vn 1.000000 0.000000 0.000000
vn 1.000000 0.000000 0.000000
vn 0.000000 -1.000000 0.000000
vn 0.000000 -1.000000 0.000000
vn 0.000000 -1.000000 0.000000
vn 0.000000 -1.000000 0.000000
vn 0.000000 0.000000 1.000000
vn 0.000000 0.000000 1.000000
vn 0.000000 0.000000 1.000000
vn 0.000000 0.000000 1.000000
vn 0.000000 0.000000 -1.000000
vn 0.000000 0.000000 -1.000000
vn 0.000000 0.000000 -1.000000
vn 0.000000 0.000000 -1.000000
vn 0.000000 0.000000 1.000000
vn 0.000000 0.000000 1.000000
vn 0.000000 0.000000 1.000000
vn 0.000000 0.000000 1.000000
vn 0.000000 1.000000 0.000000
vn 0.000000 1.000000 0.000000
vn 0.000000 1.000000 0.000000
vn 0.000000 1.000000 0.000000
vn 0.000000 0.000000 -1.000000
vn 0.000000 0.000000 -1.000000
vn 0.000000 0.000000 -1.000000
vn 0.000000 0.000000 -1.000000
vn 0.000000 -1.000000 0.000000
vn 0.000000 -1.000000 0.000000
vn 0.000000 -1.000000 0.000000
vn 0.000000 -1.000000 0.000000
vn 1.000000 0.000000 0.000000
vn 1.000000 0.000000 0.000000
vn 1.000000 0.000000 0.000000
vn 1.000000 0.000000 0.000000
vn -1.000000 0.000000 0.000000
vn -1.000000 0.000000 0.000000
vn -1.000000 0.000000 0.000000
vn -1.000000 0.000000 0.000000
vn -1.000000 0.000000 0.000000
vn -1.000000 0.000000 0.000000
vn -1.000000 0.000000 0.000000
vn -1.000000 0.000000 0.000000
vn 0.000000 1.000000 0.000000
vn 0.000000 1.000000 0.000000
vn 0.000000 1.000000 0.000000
vn 0.000000 1.000000 0.000000
vn 1.000000 0.000000 0.000000
vn 1.000000 0.000000 0.000000
vn 1.000000 0.000000 0.000000
vn 1.000000 0.000000 0.000000
vn 0.000000 -1.000000 0.000000
vn 0.000000 -1.000000 0.000000
vn 0.000000 -1.000000 0.000000
vn 0.000000 -1.000000 0.000000
vn 0.000000 0.000000 1.000000
vn 0.000000 0.000000 1.000000
vn 0.000000 0.000000 1.000000
vn 0.000000 0.000000 1.000000
vn 0.000000 0.000000 -1.000000
vn 0.000000 0.000000 -1.000000
vn 0.000000 0.000000 -1.000000
vn 0.000000 0.000000 -1.000000
vn -1.000000 0.000000 0.000000
vn -1.000000 0.000000 0.000000
vn -1.000000 0.000000 0.000000
vn -1.000000 0.000000 0.000000
vn 0.000000 1.000000 0.000000
vn 0.000000 1.000000 0.000000
vn 0.000000 1.000000 0.000000
vn 0.000000 1.000000 0.000000
vn 1.000000 0.000000 0.000000
vn 1.000000 0.000000 0.000000
vn 1.000000 0.000000 0.000000
vn 1.000000 0.000000 0.000000
vn 0.000000 -1.000000 0.000000
vn 0.000000 -1.000000 0.000000
vn 0.000000 -1.000000 0.000000
vn 0.000000 -1.000000 0.000000
vn 0.000000 0.000000 1.000000
vn 0.000000 0.000000 1.000000
vn 0.000000 0.000000 1.000000
vn 0.000000 0.000000 1.000000
vn 0.000000 0.000000 -1.000000
vn 0.000000 0.000000 -1.000000
vn 0.000000 0.000000 -1.000000
vn 0.000000 0.000000 -1.000000
vn 0.000000 0.000000 1.000000
vn 0.000000 0.000000 1.000000
vn 0.000000 0.000000 1.000000
vn 0.000000 0.000000 1.000000
vn 0.000000 1.000000 0.000000
vn 0.000000 1.000000 0.000000
vn 0.000000 1.000000 0.000000
vn 0.000000 1.000000 0.000000
vn 0.000000 0.000000 -1.000000
vn 0.000000 0.000000 -1.000000
vn 0.000000 0.000000 -1.000000
vn 0.000000 0.000000 -1.000000
vn 0.000000 -1.000000 0.000000
vn 0.000000 -1.000000 0.000000
vn 0.000000 -1.000000 0.000000
vn 0.000000 -1.000000 0.000000
vn 1.000000 0.000000 0.000000
vn 1.000000 0.000000 0.000000
vn 1.000000 0.000000 0.000000
vn 1.000000 0.000000 0.000000
vn -1.000000 0.000000 0.000000
vn -1.000000 0.000000 0.000000
vn -1.000000 0.000000 0.000000
vn -1.000000 0.000000 0.000000
s off
g Pallet
usemtl initialShadingGroup
f 1/1/1 2/2/2 4/13/3 3/14/4
f 3/4/5 4/3/6 6/5/7 5/12/8
f 5/6/9 6/11/10 8/9/11 7/8/12
f 7/8/13 8/9/14 2/2/15 1/1/16
f 2/10/17 8/7/18 6/5/19 4/3/20
f 7/8/21 1/1/22 3/4/23 5/12/24
f 9/15/25 10/16/26 12/17/27 11/18/28
f 11/19/29 12/20/30 14/21/31 13/22/32
f 13/23/33 14/24/34 16/25/35 15/26/36
f 15/26/37 16/25/38 10/16/39 9/15/40
f 10/27/41 16/28/42 14/21/43 12/20/44
f 15/26/45 9/15/46 11/19/47 13/22/48
f 17/29/49 18/30/50 20/31/51 19/32/52
f 19/33/53 20/34/54 22/35/55 21/36/56
f 21/37/57 22/38/58 24/39/59 23/40/60
f 23/40/61 24/39/62 18/30/63 17/29/64
f 18/41/65 24/42/66 22/35/67 20/34/68
f 23/40/69 17/29/70 19/33/71 21/36/72
f 25/43/73 26/44/74 28/45/75 27/46/76
f 27/47/77 28/48/78 30/49/79 29/50/80
f 29/51/81 30/52/82 32/53/83 31/54/84
f 31/54/85 32/53/86 26/44/87 25/43/88
f 26/55/89 32/56/90 30/49/91 28/48/92
f 31/54/93 25/43/94 27/47/95 29/50/96
f 33/57/97 34/58/98 36/59/99 35/60/100
f 35/61/101 36/62/102 38/63/103 37/64/104
f 37/65/105 38/66/106 40/67/107 39/68/108
f 39/68/109 40/67/110 34/58/111 33/57/112
f 34/69/113 40/70/114 38/63/115 36/62/116
f 39/68/117 33/57/118 35/61/119 37/64/120
f 41/71/121 42/72/122 44/73/123 43/74/124
f 43/75/125 44/76/126 46/77/127 45/78/128
f 45/79/129 46/80/130 48/81/131 47/82/132
f 47/82/133 48/81/134 42/72/135 41/71/136
f 42/83/137 48/84/138 46/77/139 44/76/140
f 47/82/141 41/71/142 43/75/143 45/78/144
f 49/85/145 50/86/146 52/87/147 51/88/148
f 51/89/149 52/90/150 54/91/151 53/92/152
f 53/93/153 54/94/154 56/95/155 55/96/156
f 55/96/157 56/95/158 50/86/159 49/85/160
f 50/97/161 56/98/162 54/91/163 52/90/164
f 55/96/165 49/85/166 51/89/167 53/92/168
f 57/99/169 58/100/170 60/101/171 59/102/172
f 59/103/173 60/104/174 62/105/175 61/106/176
f 61/107/177 62/108/178 64/109/179 63/110/180
f 63/110/181 64/109/182 58/100/183 57/99/184
f 58/111/185 64/112/186 62/105/187 60/104/188
f 63/110/189 57/99/190 59/103/191 61/106/192
f 65/113/193 66/114/194 68/115/195 67/116/196
f 67/117/197 68/118/198 70/119/199 69/120/200
f 69/121/201 70/122/202 72/123/203 71/124/204
f 71/124/205 72/123/206 66/114/207 65/113/208
f 66/125/209 72/126/210 70/119/211 68/118/212
f 71/124/213 65/113/214 67/117/215 69/120/216
f 73/127/217 74/128/218 76/129/219 75/130/220
f 75/131/221 76/132/222 78/133/223 77/134/224
f 77/135/225 78/136/226 80/137/227 79/138/228
f 79/138/229 80/137/230 74/128/231 73/127/232
f 74/139/233 80/140/234 78/133/235 76/132/236
f 79/138/237 73/127/238 75/131/239 77/134/240
f 81/141/241 82/142/242 84/143/243 83/144/244
f 83/145/245 84/146/246 86/147/247 85/148/248
f 85/149/249 86/150/250 88/151/251 87/152/252
f 87/153/253 88/151/254 82/142/255 81/154/256
f 82/142/257 88/151/258 86/150/259 84/143/260
f 87/153/261 81/154/262 83/145/263 85/148/264
f 89/155/265 90/156/266 92/157/267 91/158/268
f 91/159/269 92/160/270 94/161/271 93/162/272
f 93/163/273 94/164/274 96/165/275 95/166/276
f 95/166/277 96/165/278 90/156/279 89/155/280
f 90/167/281 96/168/282 94/161/283 92/160/284
f 95/166/285 89/155/286 91/159/287 93/162/288
f 97/169/289 98/170/290 100/171/291 99/172/292
f 99/173/293 100/174/294 102/175/295 101/176/296
f 101/177/297 102/178/298 104/179/299 103/180/300
f 103/180/301 104/179/302 98/170/303 97/169/304
f 98/181/305 104/182/306 102/175/307 100/174/308
f 103/180/309 97/169/310 99/173/311 101/176/312
f 105/183/313 106/184/314 108/185/315 107/186/316
f 107/187/317 108/188/318 110/189/319 109/190/320
f 109/191/321 110/192/322 112/193/323 111/194/324
f 111/195/325 112/193/326 106/184/327 105/196/328
f 106/184/329 112/193/330 110/192/331 108/185/332
f 111/195/333 105/196/334 107/187/335 109/190/336
