# This file uses centimeters as units for non-parametric coordinates.

v 0.236024 0.013092 -0.076689
v 0.200774 0.013092 -0.145871
v 0.145871 0.013092 -0.200774
v 0.076689 0.013092 -0.236024
v 0.000000 0.013092 -0.248171
v -0.076689 0.013092 -0.236024
v -0.145871 0.013092 -0.200774
v -0.200774 0.013092 -0.145871
v -0.236024 0.013092 -0.076689
v -0.248171 0.013092 0.000000
v -0.236024 0.013092 0.076689
v -0.200774 0.013092 0.145871
v -0.145871 0.013092 0.200774
v -0.076689 0.013092 0.236024
v 0.000000 0.013092 0.248171
v 0.076689 0.013092 0.236024
v 0.145871 0.013092 0.200774
v 0.200774 0.013092 0.145871
v 0.236024 0.013092 0.076689
v 0.248171 0.013092 0.000000
v 0.236024 0.109513 -0.076689
v 0.200774 0.109513 -0.145871
v 0.145871 0.109513 -0.200774
v 0.076689 0.109513 -0.236024
v 0.000000 0.109513 -0.248171
v -0.076689 0.109513 -0.236024
v -0.145871 0.109513 -0.200774
v -0.200774 0.109513 -0.145871
v -0.236024 0.109513 -0.076689
v -0.248171 0.109513 0.000000
v -0.236024 0.109513 0.076689
v -0.200774 0.109513 0.145871
v -0.145871 0.109513 0.200774
v -0.076689 0.109513 0.236024
v 0.000000 0.109513 0.248171
v 0.076689 0.109513 0.236024
v 0.145871 0.109513 0.200774
v 0.200774 0.109513 0.145871
v 0.236024 0.109513 0.076689
v 0.248171 0.109513 0.000000
v 0.189200 0.013092 -0.061475
v 0.160944 0.013092 -0.116932
v 0.116932 0.013092 -0.160943
v 0.061475 0.013092 -0.189200
v 0.000000 0.013092 -0.198937
v -0.061475 0.013092 -0.189200
v -0.116932 0.013092 -0.160943
v -0.160944 0.013092 -0.116932
v -0.189200 0.013092 -0.061475
v -0.198937 0.013092 0.000000
v -0.189200 0.013092 0.061475
v -0.160944 0.013092 0.116932
v -0.116932 0.013092 0.160944
v -0.061475 0.013092 0.189200
v 0.000000 0.013092 0.198937
v 0.061475 0.013092 0.189200
v 0.116932 0.013092 0.160944
v 0.160943 0.013092 0.116932
v 0.189200 0.013092 0.061475
v 0.198937 0.013092 -0.000000
v 0.189200 0.109513 -0.061475
v 0.160944 0.109513 -0.116932
v 0.116932 0.109513 -0.160943
v 0.061475 0.109513 -0.189200
v 0.000000 0.109513 -0.198937
v -0.061475 0.109513 -0.189200
v -0.116932 0.109513 -0.160943
v -0.160944 0.109513 -0.116932
v -0.189200 0.109513 -0.061475
v -0.198937 0.109513 0.000000
v -0.189200 0.109513 0.061475
v -0.160944 0.109513 0.116932
v -0.116932 0.109513 0.160944
v -0.061475 0.109513 0.189200
v 0.000000 0.109513 0.198937
v 0.061475 0.109513 0.189200
v 0.116932 0.109513 0.160944
v 0.160943 0.109513 0.116932
v 0.189200 0.109513 0.061475
v 0.198937 0.109513 -0.000000
v 0.189200 0.023616 -0.061475
v 0.160944 0.023616 -0.116932
v 0.000000 0.023616 0.000000
v 0.116932 0.023616 -0.160943
v 0.061475 0.023616 -0.189200
v 0.000000 0.023616 -0.198937
v -0.061475 0.023616 -0.189200
v -0.116932 0.023616 -0.160943
v -0.160944 0.023616 -0.116932
v -0.189200 0.023616 -0.061475
v -0.198937 0.023616 0.000000
v -0.189200 0.023616 0.061475
v -0.160944 0.023616 0.116932
v -0.116932 0.023616 0.160944
v -0.061475 0.023616 0.189200
v 0.000000 0.023616 0.198937
v 0.061475 0.023616 0.189200
v 0.116932 0.023616 0.160944
v 0.160943 0.023616 0.116932
v 0.189200 0.023616 0.061475
v 0.198937 0.023616 -0.000000
v 0.189200 0.100000 -0.061475
v 0.160944 0.100000 -0.116932
v 0.000000 0.100000 0.000000
v 0.116932 0.100000 -0.160943
v 0.061475 0.100000 -0.189200
v 0.000000 0.100000 -0.198937
v -0.061475 0.100000 -0.189200
v -0.116932 0.100000 -0.160943
v -0.160944 0.100000 -0.116932
v -0.189200 0.100000 -0.061475
v -0.198937 0.100000 0.000000
v -0.189200 0.100000 0.061475
v -0.160944 0.100000 0.116932
v -0.116932 0.100000 0.160944
v -0.061475 0.100000 0.189200
v 0.000000 0.100000 0.198937
v 0.061475 0.100000 0.189200
v 0.116932 0.100000 0.160944
v 0.160943 0.100000 0.116932
v 0.189200 0.100000 0.061475
v 0.198937 0.100000 -0.000000
vt 0.859514 0.777162
vt 0.813122 0.777188
vt 0.812666 0.702306
vt 0.859550 0.702417
vt 0.766866 0.777598
vt 0.766078 0.702406
vt 0.720640 0.778127
vt 0.719639 0.702687
vt 0.674410 0.778684
vt 0.673280 0.703085
vt 0.628170 0.779243
vt 0.626964 0.703554
vt 0.581920 0.779799
vt 0.580673 0.704060
vt 0.535663 0.780350
vt 0.534394 0.704588
vt 0.489400 0.780897
vt 0.488124 0.705129
vt 0.443132 0.781438
vt 0.441859 0.705677
vt 0.396855 0.781969
vt 0.395601 0.706233
vt 0.350565 0.782481
vt 0.349349 0.706794
vt 0.304251 0.782957
vt 0.303108 0.707361
vt 0.257895 0.783366
vt 0.256878 0.707929
vt 0.211461 0.783659
vt 0.210652 0.708470
vt 0.164881 0.783776
vt 0.164396 0.708897
vt 0.118007 0.783685
vt 0.118003 0.708942
vt 0.070444 0.783604
vt 0.071207 0.707831
vt 0.020810 0.785475
vt 0.956768 0.700644
vt 0.906309 0.778289
vt 0.907128 0.702515
vt 0.299378 0.573134
vt 0.856964 0.816367
vt 0.319058 0.534511
vt 0.187289 0.491697
vt 0.268726 0.603786
vt 0.230103 0.623465
vt 0.187289 0.630246
vt 0.144475 0.623465
vt 0.105852 0.603786
vt 0.075200 0.573134
vt 0.055521 0.534511
vt 0.048740 0.491697
vt 0.055521 0.448883
vt 0.075200 0.410259
vt 0.105852 0.379608
vt 0.144475 0.359928
vt 0.187289 0.353147
vt 0.230103 0.359928
vt 0.268726 0.379608
vt 0.299378 0.410259
vt 0.319057 0.448883
vt 0.325839 0.491697
vt 0.812211 0.663767
vt 0.319058 0.534511
vt 0.765933 0.663800
vt 0.719603 0.664018
vt 0.673279 0.664375
vt 0.626974 0.664819
vt 0.580685 0.665313
vt 0.534407 0.665834
vt 0.488138 0.666373
vt 0.441879 0.666923
vt 0.395633 0.667483
vt 0.349411 0.668055
vt 0.303232 0.668642
vt 0.257132 0.669244
vt 0.211184 0.669846
vt 0.165534 0.670366
vt 0.120490 0.670527
vt 0.076766 0.669453
vt 0.945566 0.660118
vt 0.903287 0.663385
vt 0.857350 0.808120
vt 0.812064 0.808248
vt 0.766306 0.808747
vt 0.720311 0.809334
vt 0.674191 0.809927
vt 0.628003 0.810506
vt 0.581778 0.811072
vt 0.535532 0.811627
vt 0.489275 0.812175
vt 0.443010 0.812714
vt 0.396734 0.813239
vt 0.350447 0.813737
vt 0.304142 0.814189
vt 0.257813 0.814557
vt 0.211465 0.814790
vt 0.165137 0.814843
vt 0.118995 0.814794
vt 0.073612 0.815277
vt 0.031088 0.818561
vt 0.901569 0.809218
vt 0.812418 0.671235
vt 0.858578 0.671305
vt 0.766079 0.671272
vt 0.719723 0.671493
vt 0.673390 0.671852
vt 0.627081 0.672297
vt 0.580790 0.672791
vt 0.534511 0.673313
vt 0.488242 0.673851
vt 0.441982 0.674401
vt 0.395735 0.674961
vt 0.349508 0.675532
vt 0.303318 0.676118
vt 0.257196 0.676720
vt 0.211199 0.677318
vt 0.165437 0.677833
vt 0.120146 0.677983
vt 0.075921 0.676911
vt 0.946530 0.667573
vt 0.903987 0.670850
vt 0.299378 0.573134
vt 0.858220 0.663841
vt 0.187289 0.491697
vt 0.268726 0.603786
vt 0.230103 0.623465
vt 0.187289 0.630246
vt 0.144475 0.623465
vt 0.105852 0.603786
vt 0.075200 0.573134
vt 0.055521 0.534511
vt 0.048740 0.491697
vt 0.055521 0.448883
vt 0.075200 0.410259
vt 0.105852 0.379608
vt 0.144475 0.359928
vt 0.187289 0.353147
vt 0.230103 0.359928
vt 0.268726 0.379608
vt 0.299378 0.410259
vt 0.319057 0.448883
vt 0.900629 0.817472
vt 0.325839 0.491697
vt 0.032158 0.826812
vt 0.074388 0.823537
vt 0.119394 0.823051
vt 0.165368 0.823104
vt 0.211627 0.823055
vt 0.257948 0.822826
vt 0.304264 0.822460
vt 0.350564 0.822010
vt 0.396849 0.821512
vt 0.443123 0.820987
vt 0.489388 0.820449
vt 0.535643 0.819901
vt 0.581886 0.819345
vt 0.628106 0.818779
vt 0.674283 0.818199
vt 0.720379 0.817604
vt 0.766318 0.817014
vt 0.811952 0.816508
vt 0.034700 0.672019
vt 0.035840 0.664585
vt 0.942794 0.814106
vt 0.941535 0.822335
vt 0.023685 0.703248
vt 0.953834 0.782868
vn 0.951057 0.000000 -0.309017
vn 0.809017 0.000000 -0.587785
vn 0.809017 0.000000 -0.587785
vn 0.951057 0.000000 -0.309017
vn 0.587785 0.000000 -0.809017
vn 0.587785 0.000000 -0.809017
vn 0.309017 0.000000 -0.951056
vn 0.309017 0.000000 -0.951056
vn 0.000000 0.000000 -1.000000
vn 0.000000 0.000000 -1.000000
vn -0.309017 0.000000 -0.951056
vn -0.309017 0.000000 -0.951056
vn -0.587785 0.000000 -0.809017
vn -0.587785 0.000000 -0.809017
vn -0.809017 0.000000 -0.587785
vn -0.809017 0.000000 -0.587785
vn -0.951057 0.000000 -0.309017
vn -0.951057 0.000000 -0.309017
vn -1.000000 0.000000 0.000000
vn -1.000000 0.000000 0.000000
vn -0.951057 0.000000 0.309017
vn -0.951057 0.000000 0.309017
vn -0.809017 0.000000 0.587785
vn -0.809017 0.000000 0.587785
vn -0.587785 0.000000 0.809017
vn -0.587785 0.000000 0.809017
vn -0.309017 0.000000 0.951056
vn -0.309017 0.000000 0.951056
vn 0.000000 0.000000 1.000000
vn 0.000000 0.000000 1.000000
vn 0.309018 0.000000 0.951056
vn 0.309018 0.000000 0.951056
vn 0.587785 0.000000 0.809017
vn 0.587785 0.000000 0.809017
vn 0.809018 0.000000 0.587785
vn 0.809018 0.000000 0.587785
vn 0.951056 0.000000 0.309017
vn 0.951056 0.000000 0.309017
vn 1.000000 0.000000 0.000002
vn 1.000000 0.000000 0.000002
vn 0.000000 -1.000000 0.000000
vn 0.000000 -1.000000 0.000000
vn 0.000000 -1.000000 0.000000
vn 0.000000 -1.000000 0.000000
vn 0.000000 -1.000000 0.000000
vn 0.000000 -1.000000 0.000000
vn 0.000000 -1.000000 0.000000
vn 0.000000 -1.000000 0.000000
vn 0.000000 -1.000000 0.000000
vn 0.000000 -1.000000 0.000000
vn 0.000000 -1.000000 0.000000
vn 0.000000 -1.000000 0.000000
vn 0.000000 -1.000000 0.000000
vn 0.000000 -1.000000 0.000000
vn 0.000000 -1.000000 0.000000
vn 0.000000 -1.000000 0.000000
vn 0.000000 -1.000000 0.000000
vn 0.000000 -1.000000 0.000000
vn 0.000000 -1.000000 0.000000
vn 0.000000 -1.000000 0.000000
vn 0.000000 -1.000000 0.000000
vn 0.000000 1.000000 0.000000
vn 0.000000 1.000000 0.000000
vn 0.000000 1.000000 0.000000
vn 0.000000 1.000000 0.000000
vn 0.000000 1.000000 0.000000
vn 0.000000 1.000000 0.000000
vn 0.000000 1.000000 0.000000
vn 0.000000 1.000000 -0.000000
vn 0.000000 1.000000 -0.000000
vn 0.000000 1.000000 0.000000
vn 0.000000 1.000000 0.000000
vn 0.000000 1.000000 0.000000
vn 0.000000 1.000000 0.000000
vn 0.000000 1.000000 0.000000
vn 0.000000 1.000000 0.000000
vn 0.000000 1.000000 0.000000
vn 0.000000 1.000000 0.000000
vn 0.000000 1.000000 -0.000000
vn 0.000000 1.000000 0.000000
vn 0.000000 1.000000 -0.000000
vn 0.000000 1.000000 0.000000
vn 0.000000 -1.000000 0.000000
vn 0.000000 -1.000000 0.000000
vn 0.000000 -1.000000 0.000000
vn 0.000000 -1.000000 0.000000
vn 0.000000 -1.000000 -0.000000
vn 0.000000 -1.000000 -0.000000
vn 0.000000 -1.000000 -0.000000
vn 0.000000 -1.000000 0.000000
vn 0.000000 -1.000000 0.000000
vn 0.000000 -1.000000 0.000000
vn 0.000000 -1.000000 0.000000
vn 0.000000 -1.000000 0.000000
vn 0.000000 -1.000000 0.000000
vn 0.000000 -1.000000 0.000000
vn 0.000000 -1.000000 0.000000
vn 0.000000 -1.000000 0.000000
vn 0.000000 -1.000000 0.000000
vn 0.000000 -1.000000 0.000000
vn 0.000000 -1.000000 0.000000
vn 0.000000 -1.000000 0.000000
vn 0.000000 -1.000000 0.000000
vn 0.000000 -1.000000 0.000000
vn 0.000000 -1.000000 0.000000
vn 0.000000 -1.000000 0.000000
vn 0.000000 -1.000000 0.000000
vn 0.000000 -1.000000 -0.000000
vn 0.000000 -1.000000 -0.000000
vn 0.000000 -1.000000 -0.000000
vn 0.000000 -1.000000 -0.000000
vn 0.000000 -1.000000 -0.000000
vn 0.000000 -1.000000 -0.000000
vn 0.000000 -1.000000 -0.000000
vn 0.000000 -1.000000 0.000000
vn 0.000000 -1.000000 0.000000
vn 0.000000 -1.000000 -0.000000
vn 0.000000 -1.000000 0.000000
vn 0.000000 -1.000000 -0.000000
vn 0.000000 -1.000000 -0.000000
vn 0.000000 -1.000000 -0.000000
vn 0.000000 -1.000000 -0.000000
vn 0.000000 1.000000 -0.000000
vn 0.000000 1.000000 -0.000000
vn 0.000000 1.000000 -0.000000
vn 0.000000 1.000000 -0.000000
vn 0.000000 1.000000 -0.000000
vn 0.000000 1.000000 -0.000000
vn 0.000000 1.000000 -0.000000
vn 0.000000 1.000000 -0.000000
vn 0.000000 1.000000 -0.000000
vn 0.000000 1.000000 -0.000000
vn 0.000000 1.000000 -0.000000
vn 0.000000 1.000000 -0.000000
vn 0.000000 1.000000 -0.000000
vn 0.000000 1.000000 -0.000000
vn 0.000000 1.000000 -0.000000
vn 0.000000 1.000000 -0.000000
vn 0.000000 1.000000 -0.000000
vn 0.000000 1.000000 -0.000000
vn 0.000000 1.000000 -0.000000
vn 0.000000 1.000000 -0.000000
vn 0.000000 1.000000 0.000000
vn 0.000000 1.000000 0.000000
vn 0.000000 1.000000 0.000000
vn 0.000000 1.000000 0.000000
vn 0.000000 1.000000 -0.000000
vn 0.000000 1.000000 -0.000000
vn 0.000000 1.000000 0.000000
vn 0.000000 1.000000 0.000000
vn 0.000000 1.000000 0.000000
vn 0.000000 1.000000 0.000000
vn 0.000000 1.000000 0.000000
vn 0.000000 1.000000 0.000000
vn 0.000000 1.000000 0.000000
vn 0.000000 1.000000 0.000000
vn 0.000000 1.000000 0.000000
vn 0.000000 1.000000 0.000000
vn 0.000000 1.000000 0.000000
vn 0.000000 1.000000 0.000000
vn 0.000000 1.000000 0.000000
vn 0.000000 1.000000 0.000000
vn -0.891007 0.000000 0.453990
vn -0.891007 0.000000 0.453990
vn -0.891007 0.000000 0.453990
vn -0.891007 0.000000 0.453990
vn -0.707106 0.000000 0.707107
vn -0.707106 0.000000 0.707107
vn -0.707106 0.000000 0.707107
vn -0.707106 0.000000 0.707107
vn -0.453991 0.000000 0.891006
vn -0.453991 0.000000 0.891006
vn -0.453991 0.000000 0.891006
vn -0.453991 0.000000 0.891006
vn -0.156434 0.000000 0.987689
vn -0.156434 0.000000 0.987689
vn -0.156434 0.000000 0.987689
vn -0.156434 0.000000 0.987689
vn 0.156434 0.000000 0.987688
vn 0.156434 0.000000 0.987688
vn 0.156434 0.000000 0.987688
vn 0.156434 0.000000 0.987688
vn 0.453990 0.000000 0.891007
vn 0.453990 0.000000 0.891007
vn 0.453990 0.000000 0.891007
vn 0.453990 0.000000 0.891007
vn 0.707107 0.000000 0.707107
vn 0.707107 0.000000 0.707107
vn 0.707107 0.000000 0.707107
vn 0.707107 0.000000 0.707107
vn 0.891007 0.000000 0.453990
vn 0.891007 0.000000 0.453990
vn 0.891007 0.000000 0.453990
vn 0.891007 0.000000 0.453990
vn 0.987688 0.000000 0.156434
vn 0.987688 0.000000 0.156434
vn 0.987688 0.000000 0.156434
vn 0.987688 0.000000 0.156434
vn 0.987688 0.000000 -0.156434
vn 0.987688 0.000000 -0.156434
vn 0.987688 0.000000 -0.156434
vn 0.987688 0.000000 -0.156434
vn 0.891007 0.000000 -0.453990
vn 0.891007 0.000000 -0.453990
vn 0.891007 0.000000 -0.453990
vn 0.891007 0.000000 -0.453990
vn 0.707107 0.000000 -0.707107
vn 0.707107 0.000000 -0.707107
vn 0.707107 0.000000 -0.707107
vn 0.707107 0.000000 -0.707107
vn 0.453990 0.000000 -0.891007
vn 0.453990 0.000000 -0.891007
vn 0.453990 0.000000 -0.891007
vn 0.453990 0.000000 -0.891007
vn 0.156433 0.000000 -0.987689
vn 0.156433 0.000000 -0.987689
vn 0.156433 0.000000 -0.987689
vn 0.156433 0.000000 -0.987689
vn -0.156434 0.000000 -0.987689
vn -0.156434 0.000000 -0.987689
vn -0.156434 0.000000 -0.987689
vn -0.156434 0.000000 -0.987689
vn -0.453989 0.000000 -0.891007
vn -0.453989 0.000000 -0.891007
vn -0.453989 0.000000 -0.891007
vn -0.453989 0.000000 -0.891007
vn -0.707107 0.000000 -0.707106
vn -0.707107 0.000000 -0.707106
vn -0.707107 0.000000 -0.707106
vn -0.707107 0.000000 -0.707106
vn -0.891006 0.000000 -0.453991
vn -0.891006 0.000000 -0.453991
vn -0.891006 0.000000 -0.453991
vn -0.891006 0.000000 -0.453991
vn -0.987688 0.000000 -0.156434
vn -0.987688 0.000000 -0.156434
vn -0.987688 0.000000 -0.156434
vn -0.987688 0.000000 -0.156434
vn -0.987688 0.000000 0.156434
vn -0.987688 0.000000 0.156434
vn -0.987688 0.000000 0.156434
vn -0.987688 0.000000 0.156434
vn -0.891007 0.000000 0.453990
vn -0.891007 0.000000 0.453990
vn -0.891007 0.000000 0.453990
vn -0.891007 0.000000 0.453990
vn -0.707106 0.000000 0.707107
vn -0.707106 0.000000 0.707107
vn -0.707106 0.000000 0.707107
vn -0.707106 0.000000 0.707107
vn -0.453991 0.000000 0.891006
vn -0.453991 0.000000 0.891006
vn -0.453991 0.000000 0.891006
vn -0.453991 0.000000 0.891006
vn -0.156433 0.000000 0.987689
vn -0.156433 0.000000 0.987689
vn -0.156433 0.000000 0.987689
vn -0.156433 0.000000 0.987689
vn 0.156434 0.000000 0.987688
vn 0.156434 0.000000 0.987688
vn 0.156434 0.000000 0.987688
vn 0.156434 0.000000 0.987688
vn 0.453990 0.000000 0.891007
vn 0.453990 0.000000 0.891007
vn 0.453990 0.000000 0.891007
vn 0.453990 0.000000 0.891007
vn 0.707107 0.000000 0.707107
vn 0.707107 0.000000 0.707107
vn 0.707107 0.000000 0.707107
vn 0.707107 0.000000 0.707107
vn 0.891007 0.000000 0.453990
vn 0.891007 0.000000 0.453990
vn 0.891007 0.000000 0.453990
vn 0.891007 0.000000 0.453990
vn 0.987688 0.000000 0.156434
vn 0.987688 0.000000 0.156434
vn 0.987688 0.000000 0.156434
vn 0.987688 0.000000 0.156434
vn 0.987688 0.000000 -0.156434
vn 0.987688 0.000000 -0.156434
vn 0.987688 0.000000 -0.156434
vn 0.987688 0.000000 -0.156434
vn 0.891007 0.000000 -0.453990
vn 0.891007 0.000000 -0.453990
vn 0.891007 0.000000 -0.453990
vn 0.891007 0.000000 -0.453990
vn 0.707107 0.000000 -0.707107
vn 0.707107 0.000000 -0.707107
vn 0.707107 0.000000 -0.707107
vn 0.707107 0.000000 -0.707107
vn 0.453990 0.000000 -0.891007
vn 0.453990 0.000000 -0.891007
vn 0.453990 0.000000 -0.891007
vn 0.453990 0.000000 -0.891007
vn 0.156433 0.000000 -0.987689
vn 0.156433 0.000000 -0.987689
vn 0.156433 0.000000 -0.987689
vn 0.156433 0.000000 -0.987689
vn -0.156434 0.000000 -0.987689
vn -0.156434 0.000000 -0.987689
vn -0.156434 0.000000 -0.987689
vn -0.156434 0.000000 -0.987689
vn -0.453989 0.000000 -0.891007
vn -0.453989 0.000000 -0.891007
vn -0.453989 0.000000 -0.891007
vn -0.453989 0.000000 -0.891007
vn -0.707108 0.000000 -0.707106
vn -0.707108 0.000000 -0.707106
vn -0.707108 0.000000 -0.707106
vn -0.707108 0.000000 -0.707106
vn -0.891006 0.000000 -0.453991
vn -0.891006 0.000000 -0.453991
vn -0.891006 0.000000 -0.453991
vn -0.891006 0.000000 -0.453991
vn -0.987688 0.000000 -0.156434
vn -0.987688 0.000000 -0.156434
vn -0.987688 0.000000 -0.156434
vn -0.987688 0.000000 -0.156434
vn -0.987688 0.000000 0.156434
vn -0.987688 0.000000 0.156434
vn -0.987688 0.000000 0.156434
vn -0.987688 0.000000 0.156434
f 1/1/1 2/2/2 22/3/3 21/4/4
f 2/2/2 3/5/5 23/6/6 22/3/3
f 3/5/5 4/7/7 24/8/8 23/6/6
f 4/7/7 5/9/9 25/10/10 24/8/8
f 5/9/9 6/11/11 26/12/12 25/10/10
f 6/11/11 7/13/13 27/14/14 26/12/12
f 7/13/13 8/15/15 28/16/16 27/14/14
f 8/15/15 9/17/17 29/18/18 28/16/16
f 9/17/17 10/19/19 30/20/20 29/18/18
f 10/19/19 11/21/21 31/22/22 30/20/20
f 11/21/21 12/23/23 32/24/24 31/22/22
f 12/23/23 13/25/25 33/26/26 32/24/24
f 13/25/25 14/27/27 34/28/28 33/26/26
f 14/27/27 15/29/29 35/30/30 34/28/28
f 15/29/29 16/31/31 36/32/32 35/30/30
f 16/31/31 17/33/33 37/34/34 36/32/32
f 17/33/33 18/35/35 38/36/36 37/34/34
f 18/35/35 19/37/37 39/167/38 38/36/36
f 19/168/37 20/39/39 40/40/40 39/38/38
f 20/39/39 1/1/1 21/4/4 40/40/40
f 82/41/41 81/43/42 83/44/43
f 84/45/44 82/41/41 83/44/43
f 85/46/45 84/45/44 83/44/43
f 86/47/46 85/46/45 83/44/43
f 87/48/47 86/47/46 83/44/43
f 88/49/48 87/48/47 83/44/43
f 89/50/49 88/49/48 83/44/43
f 90/51/50 89/50/49 83/44/43
f 91/52/51 90/51/50 83/44/43
f 92/53/52 91/52/51 83/44/43
f 93/54/53 92/53/52 83/44/43
f 94/55/54 93/54/53 83/44/43
f 95/56/55 94/55/54 83/44/43
f 96/57/56 95/56/55 83/44/43
f 97/58/57 96/57/56 83/44/43
f 98/59/58 97/58/57 83/44/43
f 99/60/59 98/59/58 83/44/43
f 100/61/60 99/60/59 83/44/43
f 101/62/61 100/61/60 83/44/43
f 81/43/42 101/62/61 83/44/43
f 102/64/62 103/123/63 104/125/64
f 103/123/63 105/126/65 104/125/64
f 105/126/65 106/127/66 104/125/64
f 106/127/66 107/128/67 104/125/64
f 107/128/67 108/129/68 104/125/64
f 108/129/68 109/130/69 104/125/64
f 109/130/69 110/131/70 104/125/64
f 110/131/70 111/132/71 104/125/64
f 111/132/71 112/133/72 104/125/64
f 112/133/72 113/134/73 104/125/64
f 113/134/73 114/135/74 104/125/64
f 114/135/74 115/136/75 104/125/64
f 115/136/75 116/137/76 104/125/64
f 116/137/76 117/138/77 104/125/64
f 117/138/77 118/139/78 104/125/64
f 118/139/78 119/140/79 104/125/64
f 119/140/79 120/141/80 104/125/64
f 120/141/80 121/142/81 104/125/64
f 121/142/81 122/144/82 104/125/64
f 122/144/82 102/64/62 104/125/64
f 2/2/83 1/1/84 41/83/85 42/84/86
f 3/5/87 2/2/83 42/84/86 43/85/88
f 4/7/89 3/5/87 43/85/88 44/86/90
f 5/9/91 4/7/89 44/86/90 45/87/92
f 6/11/93 5/9/91 45/87/92 46/88/94
f 7/13/95 6/11/93 46/88/94 47/89/96
f 8/15/97 7/13/95 47/89/96 48/90/98
f 9/17/99 8/15/97 48/90/98 49/91/100
f 10/19/101 9/17/99 49/91/100 50/92/102
f 11/21/103 10/19/101 50/92/102 51/93/104
f 12/23/105 11/21/103 51/93/104 52/94/106
f 13/25/107 12/23/105 52/94/106 53/95/108
f 14/27/109 13/25/107 53/95/108 54/96/110
f 15/29/111 14/27/109 54/96/110 55/97/112
f 16/31/113 15/29/111 55/97/112 56/98/114
f 17/33/115 16/31/113 56/98/114 57/99/116
f 18/35/117 17/33/115 57/99/116 58/100/118
f 19/37/119 18/35/117 58/100/118 59/101/120
f 20/39/121 19/168/119 59/165/120 60/102/122
f 1/1/84 20/39/121 60/102/122 41/83/85
f 21/4/123 22/3/124 62/103/125 61/104/126
f 22/3/124 23/6/127 63/105/128 62/103/125
f 23/6/127 24/8/129 64/106/130 63/105/128
f 24/8/129 25/10/131 65/107/132 64/106/130
f 25/10/131 26/12/133 66/108/134 65/107/132
f 26/12/133 27/14/135 67/109/136 66/108/134
f 27/14/135 28/16/137 68/110/138 67/109/136
f 28/16/137 29/18/139 69/111/140 68/110/138
f 29/18/139 30/20/141 70/112/142 69/111/140
f 30/20/141 31/22/143 71/113/144 70/112/142
f 31/22/143 32/24/145 72/114/146 71/113/144
f 32/24/145 33/26/147 73/115/148 72/114/146
f 33/26/147 34/28/149 74/116/150 73/115/148
f 34/28/149 35/30/151 75/117/152 74/116/150
f 35/30/151 36/32/153 76/118/154 75/117/152
f 36/32/153 37/34/155 77/119/156 76/118/154
f 37/34/155 38/36/157 78/120/158 77/119/156
f 38/36/157 39/167/159 79/163/160 78/120/158
f 39/38/159 40/40/161 80/122/162 79/121/160
f 40/40/161 21/4/123 61/104/126 80/122/162
f 42/84/163 41/83/164 81/42/165 82/162/166
f 43/85/167 42/84/168 82/162/169 84/161/170
f 44/86/171 43/85/172 84/161/173 85/160/174
f 45/87/175 44/86/176 85/160/177 86/159/178
f 46/88/179 45/87/180 86/159/181 87/158/182
f 47/89/183 46/88/184 87/158/185 88/157/186
f 48/90/187 47/89/188 88/157/189 89/156/190
f 49/91/191 48/90/192 89/156/193 90/155/194
f 50/92/195 49/91/196 90/155/197 91/154/198
f 51/93/199 50/92/200 91/154/201 92/153/202
f 52/94/203 51/93/204 92/153/205 93/152/206
f 53/95/207 52/94/208 93/152/209 94/151/210
f 54/96/211 53/95/212 94/151/213 95/150/214
f 55/97/215 54/96/216 95/150/217 96/149/218
f 56/98/219 55/97/220 96/149/221 97/148/222
f 57/99/223 56/98/224 97/148/225 98/147/226
f 58/100/227 57/99/228 98/147/229 99/146/230
f 59/101/231 58/100/232 99/146/233 100/145/234
f 60/102/235 59/165/236 100/166/237 101/143/238
f 41/83/239 60/102/240 101/143/241 81/42/242
f 61/104/243 62/103/244 103/63/245 102/124/246
f 62/103/247 63/105/248 105/65/249 103/63/250
f 63/105/251 64/106/252 106/66/253 105/65/254
f 64/106/255 65/107/256 107/67/257 106/66/258
f 65/107/259 66/108/260 108/68/261 107/67/262
f 66/108/263 67/109/264 109/69/265 108/68/266
f 67/109/267 68/110/268 110/70/269 109/69/270
f 68/110/271 69/111/272 111/71/273 110/70/274
f 69/111/275 70/112/276 112/72/277 111/71/278
f 70/112/279 71/113/280 113/73/281 112/72/282
f 71/113/283 72/114/284 114/74/285 113/73/286
f 72/114/287 73/115/288 115/75/289 114/74/290
f 73/115/291 74/116/292 116/76/293 115/75/294
f 74/116/295 75/117/296 117/77/297 116/76/298
f 75/117/299 76/118/300 118/78/301 117/77/302
f 76/118/303 77/119/304 119/79/305 118/78/306
f 77/119/307 78/120/308 120/80/309 119/79/310
f 78/120/311 79/163/312 121/164/313 120/80/314
f 79/121/315 80/122/316 122/82/317 121/81/318
f 80/122/319 61/104/320 102/124/321 122/82/322
