# This file uses centimeters as units for non-parametric coordinates.

mtllib WoodChair.mtl
g default
v 0.000000 0.711473 0.000000
v 0.729068 0.711473 0.000000
v 0.000000 0.788467 0.000000
v 0.729068 0.788467 0.000000
v 0.000000 0.788467 -0.729068
v 0.729068 0.788467 -0.729068
v 0.000000 0.711473 -0.729068
v 0.729068 0.711473 -0.729068
v 0.364534 0.711473 0.000000
v 0.364534 0.711473 -0.729068
v 0.364534 0.788467 -0.729068
v 0.364534 0.788467 0.000000
v 0.000000 0.788467 -0.364534
v 0.364534 0.788467 -0.364534
v 0.729068 0.788467 -0.364534
v 0.729068 0.711473 -0.364534
v 0.364534 0.711473 -0.364534
v 0.000000 0.711473 -0.364534
v 0.656161 0.711473 0.000000
v 0.656161 0.711473 -0.364534
v 0.656161 0.711473 -0.729068
v 0.656161 0.788467 -0.729068
v 0.656161 0.788467 -0.364534
v 0.656161 0.788467 0.000000
v 0.072907 0.711473 0.000000
v 0.072907 0.711473 -0.364534
v 0.072907 0.711473 -0.729068
v 0.072907 0.788467 -0.729068
v 0.072907 0.788467 -0.364534
v 0.072907 0.788467 0.000000
v 0.000000 0.788467 -0.072907
v 0.072907 0.788467 -0.072907
v 0.364534 0.788467 -0.072907
v 0.656161 0.788467 -0.072907
v 0.729068 0.788467 -0.072907
v 0.729068 0.711473 -0.072907
v 0.656161 0.711473 -0.072907
v 0.364534 0.711473 -0.072907
v 0.072907 0.711473 -0.072907
v 0.000000 0.711473 -0.072907
v 0.000000 0.711473 -0.656161
v 0.072907 0.711473 -0.656161
v 0.364534 0.711473 -0.656161
v 0.656161 0.711473 -0.656161
v 0.729068 0.711473 -0.656161
v 0.729068 0.788467 -0.656161
v 0.656161 0.788467 -0.656161
v 0.364534 0.788467 -0.656161
v 0.072907 0.788467 -0.656161
v 0.000000 0.788467 -0.656161
v 0.656161 -0.000000 0.000000
v 0.656161 -0.000000 -0.072907
v 0.729068 -0.000000 -0.072907
v 0.729068 -0.000000 0.000000
v 0.072907 -0.000000 -0.072907
v 0.000000 -0.000000 -0.072907
v 0.072907 -0.000000 0.000000
v 0.000000 -0.000000 0.000000
v 0.000000 -0.000000 -0.729068
v 0.072907 -0.000000 -0.729068
v 0.072907 -0.000000 -0.656161
v 0.000000 -0.000000 -0.656161
v 0.656161 -0.000000 -0.656161
v 0.729068 -0.000000 -0.656161
v 0.656161 -0.000000 -0.729068
v 0.729068 -0.000000 -0.729068
v 0.656161 1.219702 -0.072906
v 0.729068 1.219702 -0.072906
v 0.656161 1.219702 0.000001
v 0.729068 1.219702 0.000001
v 0.656161 1.219702 -0.729069
v 0.656161 1.219702 -0.656163
v 0.729068 1.219702 -0.656163
v 0.729068 1.219702 -0.729069
v 0.656161 1.514252 -0.072906
v 0.729068 1.514252 -0.072906
v 0.656161 1.514252 0.000001
v 0.729068 1.514252 0.000001
v 0.656161 1.514252 -0.729069
v 0.656161 1.514252 -0.656163
v 0.729068 1.514252 -0.656163
v 0.729068 1.514252 -0.729069
vt 0.452626 0.504711
vt 0.729859 0.500268
vt 0.729859 0.463438
vt 0.865931 0.463438
vt 0.865931 0.500268
vt 0.452626 0.467600
vt 0.407042 0.910838
vt 0.372240 0.910838
vt 0.865931 0.500268
vt 0.865931 0.463438
vt 0.487399 0.467600
vt 0.729859 0.463438
vt 0.372240 0.771628
vt 0.407042 0.771628
vt 0.729859 0.500268
vt 0.593788 0.500268
vt 0.593788 0.463438
vt 0.593788 0.463438
vt 0.593788 0.500268
vt 0.559770 0.463438
vt 0.407042 0.771628
vt 0.487399 0.504711
vt 0.372240 0.771628
vt 0.372240 0.910838
vt 0.559770 0.500268
vt 0.407042 0.910838
vt 0.452626 0.467600
vt 0.093818 0.771628
vt 0.093818 0.910838
vt 0.233029 0.910838
vt 0.233029 0.771628
vt 0.233029 0.910838
vt 0.093818 0.910838
vt 0.559770 0.463438
vt 0.452626 0.504711
vt 0.093818 0.771628
vt 0.233029 0.771628
vt 0.093818 0.632418
vt 0.559770 0.500268
vt 0.487399 0.504711
vt 0.899949 0.463438
vt 0.487399 0.467600
vt 0.233029 0.632418
vt 0.899949 0.500268
vt 0.899949 0.463438
vt 0.899949 0.500268
vt 0.559770 0.463438
vt 0.593788 0.463438
vt 0.593788 0.123116
vt 0.559770 0.123116
vt 0.559770 0.123116
vt 0.372240 0.632418
vt 0.407042 0.632418
vt 0.593788 0.123116
vt 0.593788 0.463438
vt 0.174440 0.467600
vt 0.559770 0.463438
vt 0.559770 0.123116
vt 0.407042 0.632418
vt 0.593788 0.123116
vt 0.593788 0.123116
vt 0.559770 0.123116
vt 0.372240 0.632418
vt 0.899949 0.463438
vt 0.174440 0.504711
vt 0.865931 0.463438
vt 0.233029 0.632418
vt 0.865931 0.123116
vt 0.899949 0.123116
vt 0.899949 0.123116
vt 0.093818 0.632418
vt 0.865931 0.123116
vt 0.059016 0.771628
vt 0.059016 0.632418
vt 0.865931 0.463438
vt 0.059016 0.910838
vt 0.313533 0.504711
vt 0.899949 0.463438
vt 0.059016 0.771628
vt 0.899949 0.123116
vt 0.865931 0.123116
vt 0.313533 0.467600
vt 0.059016 0.910838
vt 0.865931 0.123116
vt 0.174440 0.504711
vt 0.059016 0.632418
vt 0.174440 0.467600
vt 0.899949 0.123116
vt 0.059016 0.597615
vt 0.593788 0.500268
vt 0.093818 0.597615
vt 0.559770 0.500268
vt 0.559770 0.706542
vt 0.233029 0.597615
vt 0.313533 0.467600
vt 0.372240 0.597615
vt 0.313533 0.504711
vt 0.407042 0.632417
vt 0.372240 0.632417
vt 0.593787 0.706542
vt 0.372240 0.597615
vt 0.593787 0.706542
vt 0.139667 0.504711
vt 0.407042 0.597615
vt 0.559770 0.706542
vt 0.899949 0.500268
vt 0.139667 0.467600
vt 0.865931 0.500268
vt 0.865932 0.706542
vt 0.899949 0.706542
vt 0.372240 0.597615
vt 0.899949 0.706542
vt 0.372240 0.632418
vt 0.407042 0.632418
vt 0.139667 0.467600
vt 0.407042 0.597615
vt 0.865932 0.706542
vt 0.233029 0.597615
vt 0.559770 0.847436
vt 0.593787 0.847436
vt 0.372240 0.597615
vt 0.139667 0.504711
vt 0.593787 0.847436
vt 0.559770 0.847436
vt 0.452626 0.467600
vt 0.093818 0.597615
vt 0.865932 0.847436
vt 0.899949 0.847436
vt 0.059016 0.632418
vt 0.899949 0.847436
vt 0.865932 0.847436
vt 0.407042 0.910839
vt 0.487399 0.467600
vt 0.093818 0.632418
vt 0.487399 0.124674
vt 0.372240 0.910839
vt 0.372240 0.632417
vt 0.407042 0.632417
vt 0.452626 0.124674
vt 0.452626 0.124674
vt 0.059016 0.945641
vt 0.093818 0.945641
vt 0.093818 0.597615
vt 0.372240 0.945641
vt 0.233029 0.945641
vt 0.059016 0.597615
vt 0.407042 0.945641
vt 0.407042 0.910839
vt 0.372240 0.910839
vt 0.372240 0.945641
vt 0.487399 0.124674
vt 0.557314 0.463438
vt 0.591823 0.463438
vt 0.059016 0.945641
vt 0.591823 0.123116
vt 0.557314 0.123116
vt 0.093818 0.945641
vt 0.093818 0.910838
vt 0.059016 0.910838
vt 0.093818 0.945641
vt 0.233029 0.945641
vt 0.139667 0.124674
vt 0.372240 0.945641
vt 0.174440 0.124674
vt 0.407042 0.945641
vt 0.372240 0.945641
vt 0.174440 0.124674
vt 0.139667 0.124674
vt 0.591823 0.463438
vt 0.557314 0.463438
vt 0.557314 0.123116
vt 0.591823 0.123116
vt 0.487399 0.467600
vt 0.452626 0.467600
vt 0.452626 0.124674
vt 0.487399 0.124674
vt 0.487399 0.124674
vt 0.452626 0.124674
vt 0.487399 0.504711
vt 0.452626 0.504711
vt 0.452626 0.712563
vt 0.487399 0.712563
vt 0.487399 0.712563
vt 0.452626 0.712563
vt 0.452626 0.504711
vt 0.487399 0.504711
vt 0.487399 0.712563
vt 0.452626 0.712563
vt 0.452626 0.712563
vt 0.487399 0.712563
vt 0.487399 0.854535
vt 0.452626 0.854535
vt 0.452626 0.854535
vt 0.487399 0.854535
vt 0.407042 0.910838
vt 0.372240 0.910838
vn 0.000000 -0.000002 1.000000
vn 0.000000 0.000000 1.000000
vn 0.000000 0.000000 1.000000
vn 0.000000 -0.000003 1.000000
vn 0.000000 1.000000 0.000000
vn 0.000000 1.000000 0.000000
vn 0.000000 1.000000 0.000000
vn 0.000000 1.000000 0.000000
vn 0.000000 0.000000 -1.000000
vn 0.000000 -0.000002 -1.000000
vn 0.000000 -0.000003 -1.000000
vn 0.000000 0.000000 -1.000000
vn 0.000000 -1.000000 0.000000
vn 0.000000 -1.000000 0.000000
vn 0.000000 -1.000000 0.000000
vn 0.000000 -1.000000 0.000000
vn 1.000000 0.000000 0.000000
vn 1.000000 0.000000 0.000000
vn 1.000000 0.000000 0.000000
vn 1.000000 0.000000 0.000000
vn -1.000000 0.000000 0.000000
vn -1.000000 0.000000 0.000000
vn -1.000000 0.000000 0.000000
vn -1.000000 0.000000 0.000000
vn 0.000000 -1.000000 0.000000
vn 0.000000 -1.000000 0.000000
vn 0.000000 -1.000000 0.000000
vn 0.000000 -1.000000 0.000000
vn 0.000000 0.000000 -1.000000
vn 0.000000 0.000000 -1.000000
vn 0.000000 0.000000 -1.000000
vn 0.000000 0.000000 -1.000000
vn 0.000000 1.000000 0.000000
vn 0.000000 1.000000 0.000000
vn 0.000000 1.000000 0.000000
vn 0.000000 1.000000 0.000000
vn 0.000000 0.000000 1.000000
vn 0.000000 0.000000 1.000000
vn 0.000000 0.000000 1.000000
vn 0.000000 0.000000 1.000000
vn 0.000000 1.000000 0.000000
vn 0.000000 1.000000 0.000000
vn 0.000000 1.000000 0.000000
vn 0.000000 1.000000 0.000000
vn 1.000000 0.000000 0.000000
vn 1.000000 0.000000 0.000000
vn 0.000000 -1.000000 0.000000
vn 0.000000 -1.000000 0.000000
vn 0.000000 -1.000000 0.000000
vn 0.000000 -1.000000 0.000000
vn -1.000000 0.000000 0.000000
vn -1.000000 0.000000 0.000000
vn 0.000000 -1.000000 0.000000
vn 0.000000 -1.000000 0.000000
vn 0.000000 -1.000000 0.000000
vn 0.000000 0.000000 -1.000000
vn 0.000000 0.000000 -1.000000
vn 0.000000 1.000000 0.000000
vn 0.000000 1.000000 0.000000
vn 0.000000 1.000000 0.000000
vn 0.000000 0.000000 1.000000
vn 0.000000 0.000000 1.000000
vn 0.000000 1.000000 0.000000
vn 0.000000 1.000000 0.000000
vn 0.000000 1.000000 0.000000
vn 0.000000 1.000000 0.000000
vn 0.000000 1.000000 0.000000
vn 0.000000 1.000000 0.000000
vn 0.000000 1.000000 0.000000
vn 0.000000 1.000000 0.000000
vn 1.000000 0.000000 0.000000
vn 1.000000 0.000000 0.000000
vn 0.000000 -1.000000 0.000000
vn 0.000000 -1.000000 0.000000
vn 0.000000 -1.000000 0.000000
vn 0.000000 -1.000000 0.000000
vn 0.000000 -1.000000 0.000000
vn 0.000000 -1.000000 0.000000
vn 0.000000 -1.000000 0.000000
vn 0.000000 -1.000000 0.000000
vn 0.000000 -1.000000 0.000000
vn 0.000000 -1.000000 0.000000
vn 0.000000 -1.000000 0.000000
vn -1.000000 0.000000 0.000000
vn -1.000000 0.000000 0.000000
vn 0.000000 -1.000000 0.000000
vn 0.000000 -1.000000 0.000000
vn 0.000000 -1.000000 0.000000
vn 0.000000 -1.000000 0.000000
vn 0.000000 -1.000000 0.000000
vn 0.000000 -1.000000 0.000000
vn 0.000000 -1.000000 0.000000
vn 0.000000 -1.000000 0.000000
vn 0.000000 -1.000000 0.000000
vn 0.000000 -1.000000 0.000000
vn 0.000000 -1.000000 0.000000
vn 1.000000 0.000000 0.000000
vn 1.000000 0.000000 0.000000
vn 0.000000 1.000000 0.000000
vn 0.000000 1.000000 0.000000
vn 0.000000 1.000000 0.000000
vn 0.000000 1.000000 0.000000
vn 0.000000 1.000000 0.000000
vn 0.000000 1.000000 0.000000
vn 0.000000 1.000000 0.000000
vn 0.000000 1.000000 0.000000
vn -1.000000 0.000000 0.000000
vn -1.000000 0.000000 0.000000
vn -1.000000 0.000000 0.000000
vn -1.000000 0.000000 0.000000
vn -1.000000 0.000000 0.000000
vn -1.000000 0.000000 0.000000
vn 0.000000 0.000000 -1.000000
vn 0.000000 0.000000 -1.000000
vn 0.000000 0.000000 -1.000000
vn 0.000000 0.000000 -1.000000
vn 1.000000 0.000000 0.000000
vn 1.000000 0.000000 0.000000
vn 0.000000 0.000000 1.000000
vn 0.000000 0.000000 1.000000
vn 0.000000 0.000000 -1.000000
vn 0.000000 0.000000 -1.000000
vn 0.000000 0.000000 -1.000000
vn 0.000000 0.000000 -1.000000
vn 1.000000 0.000000 0.000000
vn 1.000000 0.000000 0.000000
vn 1.000000 0.000000 0.000000
vn 1.000000 0.000000 0.000000
vn 0.000000 0.000000 1.000000
vn 0.000000 0.000000 1.000000
vn -1.000000 0.000000 0.000000
vn -1.000000 0.000000 0.000000
vn 0.000000 0.000000 -1.000000
vn 0.000000 0.000000 -1.000000
vn 1.000000 0.000000 0.000000
vn 1.000000 0.000000 0.000000
vn 1.000000 0.000000 0.000000
vn 1.000000 0.000000 0.000000
vn 0.000000 0.000000 1.000000
vn 0.000000 0.000000 1.000000
vn 0.000000 0.000000 1.000000
vn 0.000000 0.000000 1.000000
vn -1.000000 0.000000 0.000000
vn -1.000000 0.000000 0.000000
vn 0.000000 0.000000 1.000000
vn 0.000000 0.000000 1.000000
vn 0.000000 0.000000 1.000000
vn 0.000000 0.000000 1.000000
vn -1.000000 0.000000 0.000000
vn -1.000000 0.000000 0.000000
vn -1.000000 0.000000 0.000000
vn -1.000000 0.000000 0.000000
vn 0.000000 0.000000 -1.000000
vn 0.000000 0.000000 -1.000000
vn 1.000000 0.000000 0.000000
vn 1.000000 0.000000 0.000000
vn 0.000000 0.000003 -1.000000
vn 0.000000 0.000003 -1.000000
vn 0.000000 0.000003 -1.000000
vn 0.000000 0.000003 -1.000000
vn -1.000000 -0.000000 0.000000
vn -1.000000 -0.000000 0.000000
vn -1.000000 -0.000000 0.000000
vn -1.000000 -0.000000 0.000000
vn 0.000000 -0.000002 1.000000
vn 0.000000 -0.000002 1.000000
vn 1.000000 0.000000 0.000000
vn 1.000000 0.000000 0.000000
vn -1.000000 0.000000 0.000000
vn -1.000000 0.000000 0.000000
vn -1.000000 0.000000 0.000000
vn -1.000000 0.000000 0.000000
vn 0.000000 0.000003 1.000000
vn 0.000000 0.000003 1.000000
vn 0.000000 0.000003 1.000000
vn 0.000000 0.000003 1.000000
vn 1.000000 0.000000 0.000000
vn 1.000000 0.000000 0.000000
vn 0.000000 -0.000002 -1.000000
vn 0.000000 -0.000002 -1.000000
vn -1.000000 0.000000 0.000000
vn -1.000000 0.000000 0.000000
vn 0.000000 0.000000 1.000000
vn 0.000000 0.000000 1.000000
vn 1.000000 0.000000 0.000000
vn 1.000000 0.000000 0.000000
vn -1.000000 0.000000 0.000000
vn -1.000000 0.000000 0.000000
vn 1.000000 0.000000 0.000000
vn 1.000000 0.000000 0.000000
vn 0.000000 0.000000 -1.000000
vn 0.000000 0.000000 -1.000000
vn 0.000000 -1.000000 0.000000
vn 0.000000 -1.000000 0.000000
vn 0.000000 -1.000000 0.000000
vn 0.000000 -1.000000 0.000000
vn -1.000000 0.000000 0.000000
vn -1.000000 0.000000 0.000000
vn -1.000000 0.000000 0.000000
vn -1.000000 0.000000 0.000000
vn 0.000000 1.000000 0.000000
vn 0.000000 1.000000 0.000000
vn 0.000000 1.000000 0.000000
vn 0.000000 1.000000 0.000000
vn 1.000000 0.000000 0.000000
vn 1.000000 0.000000 0.000000
vn 1.000000 0.000000 0.000000
vn 1.000000 0.000000 0.000000
s 1
g pCube1
usemtl initialShadingGroup
f 24/1/1 19/6/2 2/11/3 4/22/4
s 2
f 46/7/5 47/8/6 23/13/7 15/14/8
s 3
f 21/27/9 22/35/10 6/40/11 8/42/12
s 4
f 16/21/13 20/23/14 44/24/15 45/26/16
s 5
f 15/2/17 16/3/18 45/4/19 46/5/20
s 6
f 50/9/21 41/10/22 18/12/23 13/15/24
s 4
f 26/28/25 42/29/26 43/30/27 17/31/28
s 3
f 27/56/29 28/65/30 11/77/31 10/82/32
s 2
f 48/32/33 49/33/34 29/36/35 14/37/36
s 1
f 30/85/37 25/87/38 9/95/39 12/97/40
s 2
f 29/36/35 32/38/41 33/43/42 14/37/36
f 15/14/8 23/13/7 34/52/43 35/53/44
s 5
f 35/16/45 36/17/46 16/3/18 15/2/17
s 4
f 36/59/47 37/63/48 20/23/14 16/21/13
f 38/67/49 39/71/50 26/28/25 17/31/28
s 6
f 13/15/24 18/12/23 40/18/51 31/19/52
s 4
f 37/63/48 38/67/49 17/31/28 20/23/14
f 43/30/27 44/24/15 20/23/14 17/31/28
s 3
f 10/82/32 11/77/31 22/35/10 21/27/9
s 2
f 47/8/6 48/32/33 14/37/36 23/13/7
f 33/43/42 34/52/43 23/13/7 14/37/36
s 1
f 12/97/40 9/95/39 19/6/2 24/1/1
s 4
f 18/73/53 26/28/25 39/71/50 40/74/54
f 41/76/55 42/29/26 26/28/25 18/73/53
s 3
f 5/103/56 28/65/30 27/56/29 7/107/57
s 2
f 13/79/58 29/36/35 49/33/34 50/83/59
f 31/86/60 32/38/41 29/36/35 13/79/58
s 1
f 1/115/61 25/87/38 30/85/37 3/122/62
s 2
f 3/89/63 30/91/64 32/38/41 31/86/60
f 33/43/42 32/38/41 30/91/64 12/94/65
f 24/96/66 34/52/43 33/43/42 12/94/65
s off
f 76/98/67 75/99/68 77/101/69 78/104/70
s 5
f 2/20/71 36/17/46 35/16/45 4/25/72
s off
f 51/111/73 52/113/74 53/114/75 54/116/76
s 4
f 9/118/77 38/67/49 37/63/48 19/121/78
f 25/126/79 39/71/50 38/67/49 9/118/77
s off
f 56/129/80 55/134/81 57/143/82 58/146/83
s 6
f 31/19/52 40/18/51 1/34/84 3/39/85
s off
f 59/154/86 60/157/87 61/158/88 62/159/89
s 4
f 43/30/27 42/29/26 27/160/90 10/161/91
f 21/163/92 44/24/15 43/30/27 10/161/91
s off
f 64/195/93 63/196/94 65/166/95 66/165/96
s 5
f 46/5/20 45/4/19 8/41/97 6/44/98
s off
f 79/150/99 80/149/100 81/148/101 82/147/102
s 2
f 11/145/103 48/32/33 47/8/6 22/144/104
f 28/142/105 49/33/34 48/32/33 11/145/103
f 50/83/59 49/33/34 28/142/105 5/141/106
s 6
f 7/45/107 41/10/22 50/9/21 5/46/108
s off
f 19/47/109 37/48/110 52/49/111 51/50/112
f 37/125/113 36/133/114 53/135/115 52/139/116
s 5
f 36/17/46 2/20/71 54/51/117 53/54/118
s 1
f 2/11/3 19/6/2 51/140/119 54/151/120
s off
f 40/152/121 39/153/122 55/155/123 56/156/124
f 39/55/125 25/57/126 57/58/127 55/60/128
s 1
f 25/87/38 1/115/61 58/162/129 57/164/130
s 6
f 1/34/84 40/18/51 56/61/131 58/62/132
s 3
f 7/107/57 27/56/29 60/167/133 59/168/134
s off
f 27/64/135 42/66/136 61/68/137 60/69/138
f 42/169/139 41/170/140 62/171/141 61/172/142
s 6
f 41/10/22 7/45/107 59/70/143 62/72/144
s off
f 45/173/145 44/174/146 63/175/147 64/176/148
f 44/75/149 21/78/150 65/80/151 63/81/152
s 3
f 21/27/9 8/42/12 66/177/153 65/178/154
s 5
f 8/41/97 45/4/19 64/84/155 66/88/156
s off
f 35/179/157 34/180/158 67/181/159 68/182/160
s 11
f 34/90/161 24/92/162 69/93/163 67/100/164
s 1
f 24/1/1 4/22/4 70/183/165 69/184/166
s 5
f 4/25/72 35/16/45 68/102/167 70/105/168
s 12
f 22/106/169 47/108/170 72/109/171 71/110/172
s off
f 47/185/173 46/186/174 73/187/175 72/188/176
s 5
f 46/5/20 6/44/98 74/112/177 73/117/178
s 3
f 6/40/11 22/35/10 71/189/179 74/190/180
s 11
f 67/100/164 69/93/163 77/119/181 75/120/182
s 1
f 69/184/166 70/183/165 78/191/183 77/192/184
s 5
f 70/105/168 68/102/167 76/123/185 78/124/186
s 12
f 71/110/172 72/109/171 80/127/187 79/128/188
s 5
f 73/117/178 74/112/177 82/130/189 81/131/190
s 3
f 74/190/180 71/189/179 79/193/191 82/194/192
s off
f 68/138/193 67/137/194 72/136/195 73/132/196
f 67/100/197 75/120/198 80/127/199 72/109/200
f 75/99/201 76/98/202 81/148/203 80/149/204
f 76/123/205 68/102/206 73/117/207 81/131/208
