# This file uses centimeters as units for non-parametric coordinates.

v -0.200000 0.000000 -1.997066
v -0.200000 0.000000 0.000000
v -0.200000 2.500000 -1.997066
v -0.200000 2.500000 0.000000
v 0.000000 2.500000 -1.997066
v 0.000000 2.500000 0.000000
v 0.000000 0.000000 -1.997066
v 0.000000 0.000000 0.000000
v -0.200000 0.000000 -1.718840
v -0.200000 0.000000 -0.278226
v -0.200000 2.193980 -0.278226
v -0.200000 2.193980 -1.718840
v 0.000000 2.193980 -0.278226
v 0.000000 2.193980 -1.718840
v 0.000000 0.000000 -0.278226
v 0.000000 0.000000 -1.718840
vt 0.374250 0.202612
vt 0.231704 0.201004
vt 0.231865 0.186729
vt 0.374411 0.188337
vt 0.053260 0.198991
vt 0.053421 0.184716
vt 0.552855 0.190350
vt 0.552694 0.204625
vt 0.488071 0.411126
vt 0.490759 0.964039
vt 0.428896 0.896657
vt 0.426537 0.411425
vt 0.049078 0.966186
vt 0.110283 0.898206
vt 0.046389 0.413274
vt 0.107923 0.412974
vt 0.968556 0.963717
vt 0.531982 0.960352
vt 0.593320 0.893922
vt 0.908249 0.896350
vt 0.536195 0.413833
vt 0.597017 0.414301
vt 0.972769 0.417198
vt 0.911946 0.416729
vt 0.980750 0.209454
vt 0.945061 0.209051
vt 0.945222 0.194776
vt 0.980911 0.195178
vt 0.802306 0.207441
vt 0.802467 0.193166
vt 0.731138 0.206638
vt 0.731299 0.192363
vt 0.588383 0.205028
vt 0.588544 0.190752
vn 0.000000 1.000000 0.000000
vn 0.000000 1.000000 0.000000
vn 0.000000 1.000000 0.000000
vn 0.000000 1.000000 0.000000
vn 0.000000 0.000000 1.000000
vn 0.000000 0.000000 1.000000
vn 0.000000 0.000000 1.000000
vn 0.000000 0.000000 1.000000
vn 0.000000 0.000000 -1.000000
vn 0.000000 0.000000 -1.000000
vn 0.000000 0.000000 -1.000000
vn 0.000000 0.000000 -1.000000
vn -1.000000 0.000000 0.000000
vn -1.000000 0.000000 0.000000
vn -1.000000 0.000000 0.000000
vn -1.000000 0.000000 0.000000
vn -1.000000 0.000000 0.000000
vn -1.000000 0.000000 0.000000
vn -1.000000 0.000000 0.000000
vn -1.000000 0.000000 0.000000
vn -1.000000 0.000000 0.000000
vn -1.000000 0.000000 0.000000
vn -1.000000 0.000000 0.000000
vn -1.000000 0.000000 0.000000
vn 1.000000 0.000000 0.000000
vn 1.000000 0.000000 0.000000
vn 1.000000 0.000000 0.000000
vn 1.000000 0.000000 0.000000
vn 1.000000 0.000000 0.000000
vn 1.000000 0.000000 0.000000
vn 1.000000 0.000000 0.000000
vn 1.000000 0.000000 0.000000
vn 1.000000 0.000000 0.000000
vn 1.000000 0.000000 0.000000
vn 1.000000 0.000000 0.000000
vn 1.000000 0.000000 0.000000
vn 0.000000 -1.000000 0.000000
vn 0.000000 -1.000000 0.000000
vn 0.000000 -1.000000 0.000000
vn 0.000000 -1.000000 0.000000
vn 0.000000 0.000000 -1.000000
vn 0.000000 0.000000 -1.000000
vn 0.000000 0.000000 -1.000000
vn 0.000000 0.000000 -1.000000
vn 0.000000 -1.000000 0.000000
vn 0.000000 -1.000000 0.000000
vn 0.000000 -1.000000 0.000000
vn 0.000000 -1.000000 0.000000
vn 0.000000 0.000000 1.000000
vn 0.000000 0.000000 1.000000
vn 0.000000 0.000000 1.000000
vn 0.000000 0.000000 1.000000
vn 0.000000 -1.000000 0.000000
vn 0.000000 -1.000000 0.000000
vn 0.000000 -1.000000 0.000000
vn 0.000000 -1.000000 0.000000
f 3/1/1 4/2/2 6/3/3 5/4/4
f 2/5/5 8/6/6 6/3/7 4/2/8
f 7/7/9 1/8/10 3/1/11 5/4/12
f 2/9/13 4/10/14 11/11/15 10/12/16
f 4/10/17 3/13/18 12/14/19 11/11/20
f 3/13/21 1/15/22 9/16/23 12/14/24
f 5/17/25 6/18/26 13/19/27 14/20/28
f 6/18/29 8/21/30 15/22/31 13/19/32
f 7/23/33 5/17/34 14/20/35 16/24/36
f 2/25/37 10/26/38 15/27/39 8/28/40
f 10/26/41 11/29/42 13/30/43 15/27/44
f 11/29/45 12/31/46 14/32/47 13/30/48
f 12/31/49 9/33/50 16/34/51 14/32/52
f 9/33/53 1/8/54 7/7/55 16/34/56
