# This file uses centimeters as units for non-parametric coordinates.

mtllib DoorWay.mtl
g default
v -0.200000 0.000000 -1.997066
v -0.200000 0.000000 0.000000
v -0.200000 2.500000 -1.997066
v -0.200000 2.500000 0.000000
v 0.000000 2.500000 -1.997066
v 0.000000 2.500000 0.000000
v 0.000000 0.000000 -1.997066
v 0.000000 0.000000 0.000000
v -0.200000 0.000000 -1.497066
v -0.200000 0.000000 -0.500000
v -0.200000 2.000000 -0.500000
v -0.200000 2.000000 -1.497066
v 0.000000 2.000000 -0.500000
v 0.000000 2.000000 -1.497066
v 0.000000 0.000000 -0.500000
v 0.000000 0.000000 -1.497066
vt 0.061641 0.951933
vt 0.475698 0.952446
vt 0.521417 0.948986
vt 0.935473 0.949498
vt 0.476339 0.434115
vt 0.980911 0.195178
vt 0.936115 0.431168
vt 0.552694 0.204625
vt 0.802306 0.207441
vt 0.945061 0.209051
vt 0.731138 0.206638
vt 0.588383 0.205028
vt 0.802467 0.193166
vt 0.731299 0.192363
vt 0.945222 0.194776
vt 0.588544 0.190752
vt 0.832449 0.431040
vt 0.831936 0.845704
vt 0.552855 0.190350
vt 0.625212 0.845448
vt 0.625725 0.430784
vt 0.053421 0.184716
vt 0.522059 0.430655
vt 0.165436 0.848395
vt 0.165949 0.433731
vt 0.372160 0.848651
vt 0.372673 0.433987
vt 0.053260 0.198991
vt 0.980750 0.209454
vt 0.062283 0.433603
vt 0.231865 0.186729
vt 0.374411 0.188337
vt 0.374250 0.202612
vt 0.231704 0.201004
vn 0.000000 1.000000 0.000000
vn 0.000000 1.000000 0.000000
vn 0.000000 1.000000 0.000000
vn 0.000000 1.000000 0.000000
vn 0.000000 0.000000 1.000000
vn 0.000000 0.000000 1.000000
vn 0.000000 0.000000 1.000000
vn 0.000000 0.000000 1.000000
vn 0.000000 0.000000 -1.000000
vn 0.000000 0.000000 -1.000000
vn 0.000000 0.000000 -1.000000
vn 0.000000 0.000000 -1.000000
vn -1.000000 0.000000 0.000000
vn -1.000000 0.000000 0.000000
vn -1.000000 0.000000 0.000000
vn -1.000000 0.000000 0.000000
vn -1.000000 0.000000 0.000000
vn -1.000000 0.000000 0.000000
vn -1.000000 0.000000 0.000000
vn -1.000000 0.000000 0.000000
vn -1.000000 0.000000 0.000000
vn -1.000000 0.000000 0.000000
vn -1.000000 0.000000 0.000000
vn -1.000000 0.000000 0.000000
vn 1.000000 0.000000 0.000000
vn 1.000000 0.000000 0.000000
vn 1.000000 0.000000 0.000000
vn 1.000000 0.000000 0.000000
vn 1.000000 0.000000 0.000000
vn 1.000000 0.000000 0.000000
vn 1.000000 0.000000 0.000000
vn 1.000000 0.000000 0.000000
vn 1.000000 0.000000 0.000000
vn 1.000000 0.000000 0.000000
vn 1.000000 0.000000 0.000000
vn 1.000000 0.000000 0.000000
vn 0.000000 -1.000000 0.000000
vn 0.000000 -1.000000 0.000000
vn 0.000000 -1.000000 0.000000
vn 0.000000 -1.000000 0.000000
vn 0.000000 0.000000 -1.000000
vn 0.000000 0.000000 -1.000000
vn 0.000000 0.000000 -1.000000
vn 0.000000 0.000000 -1.000000
vn 0.000000 -1.000000 0.000000
vn 0.000000 -1.000000 0.000000
vn 0.000000 -1.000000 0.000000
vn 0.000000 -1.000000 0.000000
vn 0.000000 0.000000 1.000000
vn 0.000000 0.000000 1.000000
vn 0.000000 0.000000 1.000000
vn 0.000000 0.000000 1.000000
vn 0.000000 -1.000000 0.000000
vn 0.000000 -1.000000 0.000000
vn 0.000000 -1.000000 0.000000
vn 0.000000 -1.000000 0.000000
s off
g DoorFrame_2x3
usemtl DoorFrame_2x3SG
f 3/33/1 4/34/2 6/31/3 5/32/4
f 2/28/5 8/22/6 6/31/7 4/34/8
f 7/19/9 1/8/10 3/33/11 5/32/12
f 2/5/13 4/2/14 11/26/15 10/27/16
f 4/2/17 3/1/18 12/24/19 11/26/20
f 3/1/21 1/30/22 9/25/23 12/24/24
f 5/4/25 6/3/26 13/20/27 14/18/28
f 6/3/29 8/23/30 15/21/31 13/20/32
f 7/7/33 5/4/34 14/18/35 16/17/36
f 2/29/37 10/10/38 15/15/39 8/6/40
f 10/10/41 11/9/42 13/13/43 15/15/44
f 11/9/45 12/11/46 14/14/47 13/13/48
f 12/11/49 9/12/50 16/16/51 14/14/52
f 9/12/53 1/8/54 7/19/55 16/16/56
