# This file uses centimeters as units for non-parametric coordinates.

g default
v -0.200000 0.000000 -1.997066
v -0.200000 0.000000 -0.000000
v -0.200000 2.500000 -1.997066
v -0.200000 2.500000 -0.000000
v 0.000000 2.500000 -1.997066
v 0.000000 2.500000 -0.000000
v 0.000000 0.000000 -1.997066
v 0.000000 0.000000 -0.000000
vt 0.507271 0.007222
vt 0.871634 0.008115
vt 0.506154 0.463345
vt 0.870517 0.464237
vt 0.506064 0.499835
vt 0.870427 0.500727
vt 0.504947 0.955957
vt 0.869310 0.956850
vt 0.504858 0.992447
vt 0.869221 0.993339
vt 0.908123 0.008204
vt 0.907006 0.464327
vt 0.470781 0.007133
vt 0.469664 0.463256
vn -1.000000 0.000000 0.000000
vn -1.000000 0.000000 0.000000
vn -1.000000 0.000000 0.000000
vn -1.000000 0.000000 0.000000
vn 0.000000 1.000000 0.000000
vn 0.000000 1.000000 0.000000
vn 0.000000 1.000000 0.000000
vn 0.000000 1.000000 0.000000
vn 1.000000 0.000000 0.000000
vn 1.000000 0.000000 0.000000
vn 1.000000 0.000000 0.000000
vn 1.000000 0.000000 0.000000
vn 0.000000 -1.000000 0.000000
vn 0.000000 -1.000000 0.000000
vn 0.000000 -1.000000 0.000000
vn 0.000000 -1.000000 0.000000
vn 0.000000 0.000000 1.000000
vn 0.000000 0.000000 1.000000
vn 0.000000 0.000000 1.000000
vn 0.000000 0.000000 1.000000
vn 0.000000 0.000000 -1.000000
vn 0.000000 0.000000 -1.000000
vn 0.000000 0.000000 -1.000000
vn 0.000000 0.000000 -1.000000
s off
g Wall_2x3
f 1/1/1 2/2/2 4/4/3 3/3/4
f 3/3/5 4/4/6 6/6/7 5/5/8
f 5/5/9 6/6/10 8/8/11 7/7/12
f 7/7/13 8/8/14 2/10/15 1/9/16
f 2/2/17 8/11/18 6/12/19 4/4/20
f 7/13/21 1/1/22 3/3/23 5/14/24
