# This file uses centimeters as units for non-parametric coordinates.

mtllib Window.mtl
g default
v -0.200000 0.000000 -1.997066
v -0.200000 0.000000 0.000000
v -0.200000 2.500000 -1.997066
v -0.200000 2.500000 0.000000
v 0.000000 2.500000 -1.997066
v 0.000000 2.500000 0.000000
v 0.000000 0.000000 -1.997066
v 0.000000 0.000000 0.000000
v -0.200000 0.732219 -1.497066
v -0.200000 0.732219 -0.500000
v -0.200000 2.185798 -0.500000
v -0.200000 2.185798 -1.497066
v 0.000000 2.185798 -0.500000
v 0.000000 2.185798 -1.497066
v 0.000000 0.732219 -0.500000
v 0.000000 0.732219 -1.497066
v 0.000000 0.490218 -0.386039
v 0.048410 0.572168 -0.386039
v 0.000000 0.732219 -0.386039
v 0.048410 0.732219 -0.386039
v 0.000000 0.732219 -1.613961
v 0.048410 0.732219 -1.613961
v 0.000000 0.490218 -1.613961
v 0.048410 0.572168 -1.613961
v 0.182709 0.642301 -1.613961
v 0.182709 0.642301 -0.386039
v 0.182709 0.732219 -1.613961
v 0.182709 0.732219 -0.386039
vt 0.523089 0.449803
vt 0.096607 0.445113
vt 0.991132 0.401817
vt 0.534425 0.397304
vt 0.523504 0.966385
vt 0.985756 0.972706
vt 0.100268 0.963149
vt 0.512227 0.965934
vt 0.849530 0.779979
vt 0.660788 0.776297
vt 0.857653 0.496664
vt 0.669974 0.492939
vt 0.883368 0.468650
vt 0.641465 0.468341
vt 0.878182 0.805010
vt 0.635115 0.804503
vt 0.339144 0.550644
vt 0.322184 0.548506
vt 0.302166 0.526169
vt 0.245531 0.550398
vt 0.251488 0.771610
vt 0.304916 0.802917
vt 0.319873 0.775503
vt 0.337124 0.773642
vt 0.295032 0.551192
vt 0.292227 0.772090
vt 0.275887 0.771914
vt 0.284125 0.539956
vt 0.042327 0.363128
vt 0.044427 0.648080
vt 0.065648 0.021283
vt 0.075746 0.989285
vt 0.038328 0.021603
vt 0.048426 0.989605
vt 0.415606 0.513610
vt 0.410991 0.813923
vt 0.203201 0.511330
vt 0.203659 0.812323
vt 0.278709 0.550909
vt 0.254323 0.550525
vt 0.281159 0.783122
vt 0.299074 0.797374
vt 0.242695 0.771489
vt 0.381099 0.773945
vt 0.308119 0.520775
vt 0.383083 0.550944
vt 0.069652 0.362754
vt 0.071742 0.647814
vt 0.095313 0.403495
vt 0.524870 0.408689
vn 0.000000 1.000000 0.000000
vn 0.000000 1.000000 0.000000
vn 0.000000 1.000000 0.000000
vn 0.000000 1.000000 0.000000
vn 0.000000 -1.000000 0.000000
vn 0.000000 -1.000000 0.000000
vn 0.000000 -1.000000 0.000000
vn 0.000000 -1.000000 0.000000
vn 0.000000 0.000000 1.000000
vn 0.000000 0.000000 1.000000
vn 0.000000 0.000000 1.000000
vn 0.000000 0.000000 1.000000
vn 0.000000 0.000000 -1.000000
vn 0.000000 0.000000 -1.000000
vn 0.000000 0.000000 -1.000000
vn 0.000000 0.000000 -1.000000
vn -1.000000 -0.000000 0.000000
vn -1.000000 -0.000000 0.000000
vn -1.000000 -0.000000 0.000000
vn -1.000000 -0.000000 0.000000
vn -1.000000 -0.000000 0.000000
vn -1.000000 0.000000 0.000000
vn -1.000000 0.000000 0.000000
vn -1.000000 -0.000000 0.000000
vn -1.000000 0.000000 0.000000
vn -1.000000 0.000000 0.000000
vn -1.000000 0.000000 0.000000
vn -1.000000 0.000000 0.000000
vn -1.000000 0.000000 0.000000
vn -1.000000 -0.000000 0.000000
vn -1.000000 -0.000000 0.000000
vn -1.000000 0.000000 0.000000
vn 1.000000 0.000000 0.000000
vn 1.000000 0.000000 0.000000
vn 1.000000 0.000000 0.000000
vn 1.000000 0.000000 0.000000
vn 1.000000 0.000000 0.000000
vn 1.000000 0.000000 0.000000
vn 1.000000 0.000000 0.000000
vn 1.000000 0.000000 0.000000
vn 1.000000 0.000000 0.000000
vn 1.000000 0.000000 0.000000
vn 1.000000 0.000000 0.000000
vn 1.000000 0.000000 0.000000
vn 1.000000 0.000000 0.000000
vn 1.000000 0.000000 0.000000
vn 1.000000 0.000000 0.000000
vn 1.000000 0.000000 0.000000
vn 0.000000 0.000000 -1.000000
vn 0.000000 0.000000 -1.000000
vn 0.000000 0.000000 -1.000000
vn 0.000000 0.000000 -1.000000
vn 0.000000 -1.000000 0.000000
vn 0.000000 -1.000000 0.000000
vn 0.000000 -1.000000 0.000000
vn 0.000000 -1.000000 0.000000
vn 0.000000 0.000000 1.000000
vn 0.000000 0.000000 1.000000
vn 0.000000 0.000000 1.000000
vn 0.000000 0.000000 1.000000
vn 0.000000 1.000000 0.000000
vn 0.000000 1.000000 0.000000
vn 0.000000 1.000000 0.000000
vn 0.000000 1.000000 0.000000
vn 0.000000 0.000000 1.000000
vn 0.000000 0.000000 1.000000
vn 0.000000 0.000000 1.000000
vn 0.000000 0.000000 1.000000
vn 0.000000 1.000000 0.000000
vn 0.000000 1.000000 0.000000
vn 0.000000 1.000000 0.000000
vn 0.000000 1.000000 0.000000
vn 0.000000 0.000000 -1.000000
vn 0.000000 0.000000 -1.000000
vn 0.000000 0.000000 -1.000000
vn 0.000000 0.000000 -1.000000
vn 0.860997 -0.508610 0.000000
vn 0.860997 -0.508610 0.000000
vn 0.860997 -0.508610 0.000000
vn 0.860997 -0.508610 0.000000
vn 1.000000 0.000000 0.000000
vn 1.000000 0.000000 0.000000
vn 1.000000 0.000000 0.000000
vn 1.000000 0.000000 0.000000
vn -1.000000 0.000000 0.000000
vn -1.000000 0.000000 0.000000
vn -1.000000 0.000000 0.000000
vn -1.000000 0.000000 0.000000
vn 0.462895 -0.886413 0.000000
vn 0.462895 -0.886413 0.000000
vn 0.462895 -0.886413 0.000000
vn 0.462895 -0.886413 0.000000
vn 0.000000 0.000000 -1.000000
vn 0.000000 0.000000 -1.000000
vn 0.000000 0.000000 -1.000000
vn 0.000000 0.000000 -1.000000
vn 0.000000 1.000000 0.000000
vn 0.000000 1.000000 0.000000
vn 0.000000 1.000000 0.000000
vn 0.000000 1.000000 0.000000
vn 0.000000 0.000000 1.000000
vn 0.000000 0.000000 1.000000
vn 0.000000 0.000000 1.000000
vn 0.000000 0.000000 1.000000
s off
g Wall_2x3:Window_2x3
usemtl Wall_2x3:Window_2x3SG
f 3/1/1 4/2/2 6/49/3 5/50/4
f 7/47/5 8/48/6 2/30/7 1/29/8
f 2/30/9 8/48/10 6/32/11 4/34/12
f 7/47/13 1/29/14 3/33/15 5/31/16
f 1/8/17 2/7/18 10/38/19 9/36/20
f 2/7/21 4/2/22 11/37/23 10/38/24
f 4/2/25 3/1/26 12/35/27 11/37/28
f 3/1/29 1/8/30 9/36/31 12/35/32
f 5/4/33 6/3/34 13/13/35 14/14/36
f 6/3/37 8/6/38 15/15/39 13/13/40
f 8/6/41 7/5/42 16/16/43 15/15/44
f 7/5/45 5/4/46 14/14/47 16/16/48
f 10/9/49 11/11/50 13/13/51 15/15/52
f 11/11/53 12/12/54 14/14/55 13/13/56
f 12/12/57 9/10/58 16/16/59 14/14/60
f 9/10/61 10/9/62 15/15/63 16/16/64
f 17/17/65 18/18/66 20/19/67 19/45/68
f 19/20/69 20/40/70 22/21/71 21/43/72
f 21/22/73 22/42/74 24/23/75 23/24/76
f 23/24/77 24/23/78 18/18/79 17/17/80
f 26/25/81 25/26/82 27/27/83 28/39/84
f 23/24/85 17/17/86 19/46/87 21/44/88
f 18/18/89 24/23/90 25/26/91 26/25/92
f 24/23/93 22/42/94 27/41/95 25/26/96
f 22/21/97 20/40/98 28/39/99 27/27/100
f 20/19/101 18/18/102 26/25/103 28/28/104
